<?xml version="1.0" encoding="UTF-8"?>
<!DOCTYPE svg PUBLIC "-//W3C//DTD SVG 1.1//EN" "http://www.w3.org/Graphics/SVG/1.1/DTD/svg11.dtd">
<!-- Creator: CorelDRAW 2019 (64-Bit) -->
<svg xmlns="http://www.w3.org/2000/svg" xml:space="preserve" width="102px" height="102px" version="1.1" style="shape-rendering:geometricPrecision; text-rendering:geometricPrecision; image-rendering:optimizeQuality; fill-rule:evenodd; clip-rule:evenodd"
viewBox="0 0 1.69 1.69"
 xmlns:xlink="http://www.w3.org/1999/xlink">
 <defs>
  <style type="text/css">
   <![CDATA[
    .fil0 {fill:#7D203C;fill-rule:nonzero}
   ]]>
  </style>
 </defs>
 <g id="Слой_x0020_1">
  <metadata id="CorelCorpID_0Corel-Layer"/>
  <path class="fil0" d="M1.58 0.42c-0.15,-0.26 -0.43,-0.42 -0.73,-0.42 -0.3,0 -0.58,0.16 -0.73,0.42 0,0 0,0 -0.01,0l0 0.01c-0.07,0.12 -0.11,0.26 -0.11,0.41 0,0.47 0.38,0.85 0.84,0.85 0.3,0 0.58,-0.16 0.73,-0.42 0.01,0 0.01,-0.01 0.01,-0.01 0.07,-0.13 0.11,-0.27 0.11,-0.42 0,-0.15 -0.04,-0.29 -0.11,-0.41 0,-0.01 0,-0.01 0,-0.01zm-0.68 -0.03l0 0 0 -0.25c0.09,0.07 0.16,0.16 0.21,0.25l-0.21 0zm0.17 1.15l0 0c0.07,-0.08 0.12,-0.16 0.16,-0.25l0.19 0c-0.09,0.12 -0.21,0.2 -0.35,0.25zm-0.17 -0.36l0 0 0 -0.28 0.32 0c0,0.09 -0.02,0.19 -0.06,0.28l-0.26 0zm0.21 0.11l0 0c-0.06,0.1 -0.12,0.18 -0.21,0.25l0 -0.25 0.21 0zm0.12 -0.9l0 0c-0.04,-0.09 -0.09,-0.17 -0.16,-0.24 0.14,0.04 0.26,0.13 0.35,0.24l-0.19 0zm-0.33 0.39l0 0 0 -0.27 0.26 0c0.04,0.09 0.06,0.18 0.06,0.27l-0.32 0zm0.68 0.12l0 0c-0.01,0.1 -0.04,0.19 -0.08,0.28l-0.22 0c0.03,-0.09 0.05,-0.19 0.05,-0.28l0.25 0zm0 -0.12l0 0 -0.25 0c0,-0.09 -0.02,-0.18 -0.05,-0.27l0.22 0c0.04,0.08 0.07,0.17 0.08,0.27zm-0.79 0.51l0 0 0 0.25c-0.08,-0.07 -0.15,-0.16 -0.2,-0.25l0.2 0zm-0.37 -0.11l0 0 -0.22 0c-0.05,-0.09 -0.07,-0.18 -0.08,-0.28l0.24 0c0.01,0.09 0.03,0.19 0.06,0.28zm-0.3 -0.4l0 0c0.01,-0.1 0.03,-0.19 0.08,-0.27l0.22 0c-0.03,0.08 -0.05,0.18 -0.06,0.27l-0.24 0zm0.34 0.51l0 0c0.05,0.09 0.1,0.18 0.17,0.25 -0.14,-0.04 -0.27,-0.13 -0.36,-0.25l0.19 0zm0.33 -0.39l0 0 0 0.28 -0.25 0c-0.04,-0.09 -0.06,-0.19 -0.06,-0.28l0.31 0zm-0.52 -0.51l0 0c0.09,-0.12 0.22,-0.21 0.36,-0.25 -0.06,0.08 -0.12,0.16 -0.16,0.25l-0.2 0zm0.52 0.12l0 0 0 0.27 -0.31 0c0,-0.09 0.02,-0.18 0.06,-0.27l0.25 0zm0 -0.36l0 0 0 0.24 -0.2 0c0.05,-0.09 0.12,-0.17 0.2,-0.24z"/>
 </g>
</svg>
