<?xml version="1.0" encoding="UTF-8"?>
<!DOCTYPE svg PUBLIC "-//W3C//DTD SVG 1.1//EN" "http://www.w3.org/Graphics/SVG/1.1/DTD/svg11.dtd">
<!-- Creator: CorelDRAW 2019 (64-Bit) -->
<svg xmlns="http://www.w3.org/2000/svg" xml:space="preserve" width="80px" height="80px" version="1.1" style="shape-rendering:geometricPrecision; text-rendering:geometricPrecision; image-rendering:optimizeQuality; fill-rule:evenodd; clip-rule:evenodd"
viewBox="0 0 1.1 1.1"
 xmlns:xlink="http://www.w3.org/1999/xlink">
 <defs>
  <style type="text/css">
   <![CDATA[
    .fil0 {fill:#F6E9D0}
    .fil1 {fill:#451D33}
   ]]>
  </style>
 </defs>
 <g id="Слой_x0020_1">
  <metadata id="CorelCorpID_0Corel-Layer"/>
  <g id="_4476907392">
   <path class="fil0" d="M1.1 0.55c0,-0.3 -0.25,-0.55 -0.55,-0.55 -0.3,0 -0.55,0.25 -0.55,0.55 0,0.3 0.25,0.55 0.55,0.55 0.3,0 0.55,-0.25 0.55,-0.55z"/>
   <path class="fil1" d="M0.85 0.56c0,0.04 0,0.08 0,0.12 0,0.07 -0.04,0.12 -0.1,0.16 -0.02,0.01 -0.05,0.01 -0.08,0.01 -0.08,0 -0.16,0.01 -0.24,0 -0.07,0 -0.12,-0.03 -0.16,-0.08 -0.01,-0.03 -0.02,-0.05 -0.02,-0.08 0,-0.09 0,-0.18 0,-0.27 0,-0.06 0.03,-0.1 0.08,-0.14 0.03,-0.01 0.07,-0.02 0.1,-0.02 0.08,0 0.16,0 0.24,0 0.06,0 0.11,0.02 0.15,0.07 0.02,0.03 0.03,0.06 0.03,0.09 0,0.05 0,0.09 0,0.14zm-0.04 0l0 0c0,-0.05 0,-0.09 0,-0.14 0,-0.02 -0.01,-0.04 -0.03,-0.06 -0.02,-0.04 -0.06,-0.06 -0.11,-0.06 -0.08,0 -0.16,0 -0.24,0 -0.02,0 -0.05,0.01 -0.07,0.02 -0.04,0.02 -0.06,0.06 -0.06,0.11 0,0.08 0,0.17 0,0.26 0,0.02 0,0.04 0.02,0.06 0.03,0.04 0.06,0.06 0.11,0.06 0.08,0 0.16,0 0.24,0 0.02,0 0.04,0 0.06,-0.01 0.04,-0.02 0.08,-0.06 0.08,-0.12 -0.01,-0.04 0,-0.08 0,-0.12z"/>
   <path class="fil1" d="M0.55 0.68c-0.08,0 -0.14,-0.06 -0.14,-0.14 0,-0.07 0.06,-0.13 0.14,-0.13 0.08,0 0.14,0.06 0.14,0.14 0,0.07 -0.06,0.13 -0.14,0.13zm0 -0.23l0 0c-0.05,0 -0.09,0.04 -0.09,0.09 0,0.06 0.04,0.1 0.09,0.1 0.05,0 0.1,-0.04 0.1,-0.1 0,-0.05 -0.05,-0.09 -0.1,-0.09z"/>
   <path class="fil1" d="M0.74 0.39c0,0.02 -0.02,0.04 -0.03,0.04 -0.02,0 -0.03,-0.02 -0.03,-0.04 0,-0.01 0.01,-0.03 0.03,-0.03 0.01,0 0.03,0.02 0.03,0.03z"/>
  </g>
 </g>
</svg>
