<?xml version="1.0" encoding="UTF-8"?>
<!DOCTYPE svg PUBLIC "-//W3C//DTD SVG 1.1//EN" "http://www.w3.org/Graphics/SVG/1.1/DTD/svg11.dtd">
<!-- Creator: CorelDRAW 2019 (64-Bit) -->
<svg xmlns="http://www.w3.org/2000/svg" xml:space="preserve" width="80px" height="80px" version="1.1" style="shape-rendering:geometricPrecision; text-rendering:geometricPrecision; image-rendering:optimizeQuality; fill-rule:evenodd; clip-rule:evenodd"
viewBox="0 0 1.44 1.44"
 xmlns:xlink="http://www.w3.org/1999/xlink">
 <defs>
  <style type="text/css">
   <![CDATA[
    .fil0 {fill:#F6E9D0}
   ]]>
  </style>
 </defs>
 <g id="Слой_x0020_1">
  <metadata id="CorelCorpID_0Corel-Layer"/>
  <g id="_4485350336">
   <g>
    <g>
     <path class="fil0" d="M0.72 0c0.39,0 0.72,0.32 0.72,0.72 0,0.39 -0.33,0.72 -0.72,0.72 -0.4,0 -0.72,-0.33 -0.72,-0.72 0,-0.4 0.32,-0.72 0.72,-0.72zm0.04 0.29l0 0c-0.01,0 -0.03,0 -0.04,0 -0.02,0 -0.03,0 -0.03,0.01 -0.01,0.01 -0.01,0.03 0,0.04 0,0 0.01,0 0.04,0 0.08,0.01 0.14,0.03 0.19,0.07 0.08,0.06 0.12,0.13 0.14,0.22 0,0.03 0,0.04 0,0.08 0.01,0.02 0.01,0.02 0.01,0.02 0.01,0.02 0.03,0.02 0.04,0.01 0.01,-0.01 0.01,-0.01 0.01,-0.04 -0.01,-0.07 -0.02,-0.14 -0.05,-0.19 -0.02,-0.04 -0.04,-0.07 -0.07,-0.1 -0.04,-0.04 -0.07,-0.06 -0.11,-0.08 -0.04,-0.02 -0.08,-0.03 -0.13,-0.04zm-0.32 0.02l0 0c-0.01,-0.01 -0.03,-0.01 -0.04,-0.01 -0.01,0.01 -0.03,0.02 -0.07,0.04 -0.02,0.02 -0.05,0.05 -0.06,0.06 -0.01,0.03 -0.01,0.05 0.01,0.11 0.03,0.09 0.08,0.19 0.15,0.27 0.13,0.17 0.28,0.29 0.48,0.38 0.03,0.01 0.04,0.01 0.06,0.01 0.02,0 0.04,-0.01 0.07,-0.03 0.02,-0.02 0.07,-0.07 0.08,-0.1 0.01,-0.03 0,-0.05 -0.01,-0.07 -0.01,-0.01 -0.07,-0.06 -0.1,-0.08 -0.02,-0.01 -0.06,-0.04 -0.07,-0.04 -0.02,-0.01 -0.04,-0.02 -0.06,-0.01 -0.02,0.01 -0.02,0.01 -0.05,0.04 -0.01,0.01 -0.02,0.03 -0.02,0.03 0,0 -0.01,0 -0.01,0.01 -0.02,0 -0.05,0 -0.09,-0.02 -0.03,-0.02 -0.06,-0.04 -0.09,-0.07 -0.03,-0.02 -0.06,-0.06 -0.07,-0.08 -0.02,-0.03 -0.04,-0.08 -0.04,-0.1 0,-0.01 0.01,-0.03 0.01,-0.03 0,-0.01 0.02,-0.02 0.03,-0.03 0.03,-0.03 0.04,-0.03 0.04,-0.05 0.01,-0.01 0,-0.03 -0.01,-0.06 -0.02,-0.05 -0.1,-0.15 -0.13,-0.16 0,-0.01 -0.01,-0.01 -0.01,-0.01zm0.33 0.09l0 0c-0.03,-0.01 -0.04,-0.01 -0.05,0 -0.01,0.01 -0.01,0.03 0,0.04 0.01,0 0.01,0 0.03,0.01 0.04,0 0.08,0.01 0.11,0.03 0.03,0.02 0.06,0.05 0.07,0.08 0.02,0.03 0.03,0.07 0.03,0.11 0,0.02 0,0.03 0.02,0.03 0,0.01 0.01,0.01 0.02,0 0,0 0.01,0 0.01,-0.01 0,0 0,-0.04 0,-0.05 0,-0.05 -0.02,-0.09 -0.04,-0.13 -0.05,-0.06 -0.11,-0.1 -0.2,-0.11zm0.03 0.1l0 0c-0.01,0 -0.02,0 -0.02,0 -0.02,0 -0.02,0 -0.02,0 -0.02,0.01 -0.02,0.03 -0.01,0.04 0,0.01 0.01,0.01 0.03,0.01 0.03,0.01 0.06,0.02 0.07,0.05 0,0.01 0.01,0.02 0.01,0.04 0,0.02 0,0.02 0.01,0.03 0.01,0 0.03,0 0.03,0 0.01,-0.01 0.01,-0.02 0.01,-0.05 -0.01,-0.04 -0.02,-0.06 -0.04,-0.08 -0.02,-0.02 -0.04,-0.03 -0.07,-0.04z"/>
    </g>
   </g>
  </g>
 </g>
</svg>
