<?xml version="1.0" encoding="UTF-8"?>
<!DOCTYPE svg PUBLIC "-//W3C//DTD SVG 1.1//EN" "http://www.w3.org/Graphics/SVG/1.1/DTD/svg11.dtd">
<!-- Creator: CorelDRAW 2019 (64-Bit) -->
<svg xmlns="http://www.w3.org/2000/svg" xml:space="preserve" width="80px" height="80px" version="1.1" style="shape-rendering:geometricPrecision; text-rendering:geometricPrecision; image-rendering:optimizeQuality; fill-rule:evenodd; clip-rule:evenodd"
viewBox="0 0 1.17 1.17"
 xmlns:xlink="http://www.w3.org/1999/xlink">
 <defs>
  <style type="text/css">
   <![CDATA[
    .fil0 {fill:#F6E9D0}
    .fil1 {fill:#451D33}
   ]]>
  </style>
 </defs>
 <g id="Слой_x0020_1">
  <metadata id="CorelCorpID_0Corel-Layer"/>
  <g id="_4478635296">
   <path class="fil0" d="M1.17 0.59c0,0.32 -0.26,0.58 -0.58,0.58 -0.33,0 -0.59,-0.26 -0.59,-0.58 0,-0.33 0.26,-0.59 0.59,-0.59 0.32,0 0.58,0.26 0.58,0.59z"/>
   <path class="fil1" d="M0.6 0.84c0.01,0 0.02,-0.01 0.02,-0.02 0,-0.06 0.02,-0.09 0.06,-0.05 0.04,0.04 0.05,0.07 0.11,0.07 0.01,0 0.07,0 0.09,0 0.07,0 0.01,-0.07 -0.05,-0.12 -0.04,-0.04 -0.05,-0.04 0,-0.1 0.05,-0.07 0.12,-0.15 0.06,-0.15 -0.02,0 -0.01,0 -0.12,0 -0.02,0 -0.02,0.01 -0.03,0.03 -0.03,0.07 -0.09,0.15 -0.11,0.14 -0.02,-0.01 -0.01,-0.06 -0.01,-0.14 0,-0.02 0,-0.04 -0.03,-0.05 -0.09,-0.02 -0.17,0.02 -0.14,0.03 0.05,0.01 0.04,0.1 0.03,0.14 -0.01,0.07 -0.08,-0.06 -0.11,-0.12 -0.01,-0.02 -0.01,-0.03 -0.04,-0.03 -0.01,0 -0.07,0 -0.09,0 -0.02,0 -0.03,0.01 -0.02,0.02 0.01,0.02 0.08,0.18 0.16,0.27 0.08,0.09 0.16,0.08 0.22,0.08z"/>
  </g>
 </g>
</svg>
