<?xml version="1.0" encoding="UTF-8"?>
<!DOCTYPE svg PUBLIC "-//W3C//DTD SVG 1.1//EN" "http://www.w3.org/Graphics/SVG/1.1/DTD/svg11.dtd">
<!-- Creator: CorelDRAW 2019 (64-Bit) -->
<svg xmlns="http://www.w3.org/2000/svg" xml:space="preserve" width="80px" height="80px" version="1.1" style="shape-rendering:geometricPrecision; text-rendering:geometricPrecision; image-rendering:optimizeQuality; fill-rule:evenodd; clip-rule:evenodd"
viewBox="0 0 1.34 1.34"
 xmlns:xlink="http://www.w3.org/1999/xlink">
 <defs>
  <style type="text/css">
   <![CDATA[
    .fil0 {fill:#F6E9D0}
    .fil1 {fill:#451D33}
   ]]>
  </style>
 </defs>
 <g id="Слой_x0020_1">
  <metadata id="CorelCorpID_0Corel-Layer"/>
  <g id="_1614481040">
   <path class="fil0" d="M1.34 0.67c0,-0.37 -0.3,-0.67 -0.67,-0.67 -0.37,0 -0.67,0.3 -0.67,0.67 0,0.37 0.3,0.67 0.67,0.67 0.37,0 0.67,-0.3 0.67,-0.67z"/>
   <path class="fil1" d="M0.95 0.39c-0.08,-0.08 -0.18,-0.12 -0.28,-0.12 -0.22,0 -0.39,0.18 -0.39,0.4 0,0.06 0.02,0.13 0.05,0.19l-0.05 0.2 0.2 -0.05c0.06,0.03 0.12,0.05 0.19,0.05 0.21,0 0.39,-0.18 0.39,-0.4 0,-0.1 -0.04,-0.2 -0.11,-0.27zm-0.11 0.55l0 0c-0.05,0.03 -0.11,0.05 -0.17,0.05 -0.06,0 -0.11,-0.01 -0.16,-0.04l-0.02 -0.01 -0.12 0.03 0.03 -0.12 -0.01 -0.01c-0.09,-0.16 -0.05,-0.36 0.11,-0.45 0.15,-0.09 0.35,-0.05 0.44,0.1 0.1,0.16 0.05,0.36 -0.1,0.45z"/>
   <path class="fil1" d="M0.84 0.74c0,0 -0.04,-0.01 -0.06,-0.02 0,0 0,-0.01 -0.01,-0.01 0,0 -0.01,0.01 -0.01,0.01 0,0 0,0 -0.03,0.04 -0.01,0 -0.01,0 -0.01,0l-0.01 0c0,0 0,0 0,0l-0.02 -0.01c-0.02,-0.01 -0.04,-0.02 -0.06,-0.04 0,0 -0.01,-0.01 -0.01,-0.01 -0.02,-0.02 -0.03,-0.03 -0.04,-0.05l-0.01 -0.01c0,0 0,0 0,0 0,-0.01 0,-0.01 0,-0.01 0,0 0.01,-0.02 0.02,-0.02 0,-0.01 0,-0.01 0.01,-0.02 0,0 0,-0.01 0,-0.02 0,-0.01 -0.03,-0.07 -0.03,-0.08 -0.01,-0.01 -0.01,-0.01 -0.02,-0.01l0 0c-0.01,0 -0.01,0 -0.02,0 0,0 -0.01,0 -0.01,0l0 0c-0.01,0.01 -0.01,0.01 -0.02,0.01 0,0.01 0,0.01 -0.01,0.02 -0.01,0.01 -0.02,0.04 -0.02,0.06 0,0.02 0,0.04 0.01,0.05l0 0.01c0.02,0.04 0.05,0.07 0.08,0.11l0.01 0c0,0.01 0.01,0.02 0.02,0.02 0.04,0.04 0.09,0.07 0.15,0.08 0.01,0.01 0.01,0.01 0.02,0.01 0.01,0 0.02,0 0.02,0 0.01,0 0.03,-0.01 0.03,-0.01 0.01,-0.01 0.01,-0.01 0.02,-0.01l0 0c0.01,-0.01 0.01,-0.01 0.02,-0.01 0,-0.01 0,-0.01 0.01,-0.02 0,-0.01 0,-0.02 0.01,-0.03 0,0 0,-0.01 0,-0.01 0,0 -0.01,0 -0.01,-0.01l-0.02 -0.01z"/>
  </g>
 </g>
</svg>
