<?xml version="1.0" encoding="UTF-8"?>
<!DOCTYPE svg PUBLIC "-//W3C//DTD SVG 1.1//EN" "http://www.w3.org/Graphics/SVG/1.1/DTD/svg11.dtd">
<!-- Creator: CorelDRAW 2019 (64-Bit) -->
<svg xmlns="http://www.w3.org/2000/svg" xml:space="preserve" width="80px" height="80px" version="1.1" style="shape-rendering:geometricPrecision; text-rendering:geometricPrecision; image-rendering:optimizeQuality; fill-rule:evenodd; clip-rule:evenodd"
viewBox="0 0 1.01 1.01"
 xmlns:xlink="http://www.w3.org/1999/xlink">
 <defs>
  <style type="text/css">
   <![CDATA[
    .fil0 {fill:#F6E9D0}
    .fil1 {fill:#451D33}
   ]]>
  </style>
 </defs>
 <g id="Слой_x0020_1">
  <metadata id="CorelCorpID_0Corel-Layer"/>
  <g id="_1610513504">
   <path class="fil0" d="M1.01 0.5c0,-0.27 -0.23,-0.5 -0.51,-0.5 -0.27,0 -0.5,0.23 -0.5,0.5 0,0.28 0.23,0.51 0.5,0.51 0.28,0 0.51,-0.23 0.51,-0.51z"/>
   <polygon class="fil1" points="0.59,0.52 0.5,0.6 0.41,0.52 0.34,0.58 0.18,0.72 0.5,0.72 0.83,0.72 0.67,0.58 "/>
   <polygon class="fil1" points="0.38,0.5 0.28,0.4 0.17,0.3 0.17,0.5 0.17,0.71 0.28,0.6 "/>
   <polygon class="fil1" points="0.5,0.57 0.67,0.43 0.83,0.29 0.5,0.29 0.18,0.29 0.34,0.43 "/>
   <polygon class="fil1" points="0.73,0.4 0.62,0.5 0.73,0.6 0.84,0.71 0.84,0.5 0.84,0.3 "/>
  </g>
 </g>
</svg>
