<?xml version="1.0" encoding="UTF-8"?>
<!DOCTYPE svg PUBLIC "-//W3C//DTD SVG 1.1//EN" "http://www.w3.org/Graphics/SVG/1.1/DTD/svg11.dtd">
<!-- Creator: CorelDRAW 2019 (64-Bit) -->
<svg xmlns="http://www.w3.org/2000/svg" xml:space="preserve" width="80px" height="80px" version="1.1" style="shape-rendering:geometricPrecision; text-rendering:geometricPrecision; image-rendering:optimizeQuality; fill-rule:evenodd; clip-rule:evenodd"
viewBox="0 0 1.14 1.14"
 xmlns:xlink="http://www.w3.org/1999/xlink">
 <defs>
  <style type="text/css">
   <![CDATA[
    .fil0 {fill:#F6E9D0}
   ]]>
  </style>
 </defs>
 <g id="Слой_x0020_1">
  <metadata id="CorelCorpID_0Corel-Layer"/>
  <path class="fil0" d="M0.57 0c-0.32,0 -0.57,0.25 -0.57,0.57 0,0.31 0.25,0.57 0.57,0.57 0.31,0 0.57,-0.26 0.57,-0.57 0,-0.32 -0.26,-0.57 -0.57,-0.57zm0.3 0.83l0 0 -0.05 0.05c0,0 -0.03,0.01 -0.03,0.01 -0.14,0 -0.28,-0.06 -0.38,-0.16 -0.11,-0.1 -0.16,-0.24 -0.16,-0.38 0,0 0,-0.03 0.01,-0.04l0.05 -0.04c0.01,-0.02 0.05,-0.03 0.07,-0.02l0.01 0.01c0.02,0 0.04,0.03 0.05,0.05l0.02 0.08c0.01,0.03 0,0.06 -0.01,0.08l-0.04 0.03c0.03,0.11 0.12,0.19 0.23,0.22l0.03 -0.03c0.02,-0.01 0.05,-0.02 0.07,-0.01l0.09 0.02c0.02,0 0.05,0.03 0.05,0.05l0.01 0.01c0,0.02 0,0.05 -0.02,0.07z"/>
 </g>
</svg>
