<svg xmlns="http://www.w3.org/2000/svg" width="80" height="80" viewBox="0 0 1.3 1.3" shape-rendering="geometricPrecision" text-rendering="geometricPrecision" image-rendering="optimizeQuality" fill-rule="evenodd" clip-rule="evenodd"><defs><style>.fil0{fill:#f6e9d0}</style></defs><g id="Слой_x0020_1"><g id="_1614487536"><path class="fil0" d="M.52.59C.53.47.61.39.73.38L1 .1A.679.679 0 00.75.01L.26.5l.17.18.09-.09zM1.3.65c0-.2-.09-.38-.23-.5L.84.38c.12.03.19.13.19.26 0 .05-.03.12-.07.19l.21.21c.08-.11.13-.25.13-.39z"/><path class="fil0" d="M.59.64c0 .05.07.19.18.35C.88.84.95.7.95.64.95.52.88.46.77.46.66.46.59.52.59.64zM.77.56C.81.56.85.6.85.64.85.69.81.73.77.73A.09.09 0 01.68.64C.68.6.72.56.77.56z"/><path class="fil0" d="M.65 1.3c.18 0 .35-.08.47-.2L.92.9c-.05.09-.11.16-.12.18l-.03.04-.03-.04C.72 1.05.56.84.52.7l-.37.37c.12.14.3.23.5.23zM.37.73L.05.41C.02.48 0 .56 0 .65 0 .78.04.9.1 1L.37.73zM.08.33L.2.44.64 0C.4 0 .2.13.08.33z"/></g></g></svg>