<svg xmlns="http://www.w3.org/2000/svg" width="80" height="80" viewBox="0 0 1.01 1.01" shape-rendering="geometricPrecision" text-rendering="geometricPrecision" image-rendering="optimizeQuality" fill-rule="evenodd" clip-rule="evenodd"><defs><style>.fil1{fill:#451d33}</style></defs><g id="Слой_x0020_1"><g id="_1610513504"><path d="M1.01.5C1.01.23.78 0 .5 0 .23 0 0 .23 0 .5c0 .28.23.51.5.51.28 0 .51-.23.51-.51z" fill="#f6e9d0"/><path class="fil1" d="M.59.52L.5.6.41.52.34.58.18.72h.65L.67.58zM.38.5L.28.4.17.3V.71L.28.6z"/><path class="fil1" d="M.5.57L.67.43.83.29H.18l.16.14zM.73.4L.62.5l.11.1.11.11V.3z"/></g></g></svg>