<svg xmlns="http://www.w3.org/2000/svg" width="80" height="80" viewBox="0 0 1.14 1.14" shape-rendering="geometricPrecision" text-rendering="geometricPrecision" image-rendering="optimizeQuality" fill-rule="evenodd" clip-rule="evenodd"><path d="M.57 0C.25 0 0 .25 0 .57A.57.57 0 10.57 0zm.3.83L.82.88.79.89C.65.89.51.83.41.73A.507.507 0 01.25.35s0-.03.01-.04L.31.27C.32.25.36.24.38.25l.01.01c.02 0 .04.03.05.05l.02.08C.47.42.46.45.45.47L.41.5c.03.11.12.19.23.22L.67.69C.69.68.72.67.74.68L.83.7C.85.7.88.73.88.75l.01.01c0 .02 0 .05-.02.07z" fill="#f6e9d0"/></svg>