<svg xmlns="http://www.w3.org/2000/svg" width="235" height="374" viewBox="0 0 43.14 68.63" shape-rendering="geometricPrecision" text-rendering="geometricPrecision" image-rendering="optimizeQuality" fill-rule="evenodd" clip-rule="evenodd"><defs><clipPath id="id0"><path d="M0 0h43.14v68.63H0V0z"/></clipPath><style>.fil4{fill:#2e261e}.fil3,.fil5,.fil6{fill:#fefefe;fill-rule:nonzero}.fil3,.fil6{fill:#2b2a29}.fil6{fill:#2e261e}</style></defs><g id="blok_x0020_1"><g id="logotip"><g clip-path="url(#id0)"><path fill="#f9f2e6" d="M-55.08-55.08h153.3V123.7h-153.3z"/></g><path id="1" fill="none" d="M0 0h43.14v68.63H0z"/><path fill="#f6e7ce" d="M2.28 1.8h38.45v65.03H2.28z"/><path class="fil3" d="M1.74 1.8h39.61v65.19H1.66V1.8h.08zm39.45.16H1.82v64.87h39.37V1.96z"/><path class="fil4" d="M1.97 1.88h39.07v6.43H1.97z"/><path class="fil3" d="M1.74 1.81h39.6v6.57H1.67V1.81h.07zm39.46.14H1.81v6.29H41.2V1.95z"/><path class="fil4" d="M1.67 60.48h39.68v6.43H1.67z"/><path class="fil3" d="M1.74 60.42H41.2v6.56c-13.17.01-26.35.01-39.53 0v-6.56h.07zm39.33.13H1.81v6.29h39.26v-6.29z"/><path class="fil5" d="M15.57 3.2h.44l-1.32 3.76h-.71L12.64 3.2h.78l.68 2.03c.05.15.1.3.14.45.05.15.09.28.13.4.04.14.08.28.12.4.04-.15.09-.3.14-.45.04-.13.08-.28.13-.43.05-.15.1-.29.14-.42l.67-1.98zm1.59 3.76h-.73V3.2h.73v3.76zm3.76.02L18.4 4.34h-.01c.01.22.02.43.02.61 0 .08 0 .16.01.24v1.77h-.43V3.18h.32l2.53 2.62c0-.2-.01-.39-.01-.57V5v-.22c-.01-.07-.01-.13-.01-.19V3.2h.43v3.78h-.33zm4.21-1.35c0 .19-.03.37-.1.53-.07.17-.17.32-.31.44-.13.13-.3.23-.51.3-.2.07-.43.11-.7.11-.22 0-.42-.03-.6-.07-.17-.05-.33-.12-.45-.23a.903.903 0 01-.29-.4c-.07-.17-.11-.38-.11-.62V3.2h.73v2.56c0 .18.02.33.05.44.03.11.08.2.15.26.06.06.14.1.24.11a1.686 1.686 0 00.73-.02c.11-.03.2-.08.28-.13.07-.05.12-.14.14-.26.02-.11.03-.25.03-.42V3.2h.72v2.43zm4.5 1.33l-.28-2.86-1.29 2.86h-.22L26.49 4.1l-.24 2.86h-.42l.36-3.78h.68l1.25 2.66 1.19-2.66h.67l.39 3.78h-.74z"/><path class="fil3" d="M15.57 3.17h.48c-.44 1.28-.89 2.55-1.34 3.82h-.75c-.45-1.27-.91-2.54-1.36-3.82h.84l.69 2.05.07.23.2.62.09.3.04-.12.2-.66c.02-.07.05-.14.07-.22.25-.73.5-1.46.75-2.2h.02zm.4.06h-.38l-.66 1.96-.07.2c-.02.07-.05.14-.07.22l-.2.65-.1.33-.03-.1-.06-.19-.06-.21-.2-.62-.07-.23-.67-2.01h-.72L14 6.93h.67l1.3-3.7zm1.19 3.76h-.76V3.17h.79v3.82h-.03zm-.7-.06h.67v-3.7h-.67v3.7zM20.9 7l-2.48-2.59.02.54c.01.68.01 1.36.01 2.04h-.49V3.15h.37l2.48 2.57-.01-.49V5l-.01-.41V3.17h.49v3.84h-.37L20.9 7zm-2.48-2.68l2.52 2.62h.28V3.23h-.37v1.36l.01.41v.23l.01.64-2.57-2.66h-.27v3.72h.36c0-.66 0-1.32-.01-1.98l-.02-.64h.05l.01.01zm6.74 1.31c0 .1 0 .19-.02.28-.02.09-.05.18-.08.27-.04.08-.08.16-.14.24-.05.07-.11.14-.18.2-.07.07-.15.13-.23.18-.09.05-.18.09-.29.13a2.34 2.34 0 01-.71.11c-.11 0-.22-.01-.32-.02s-.19-.03-.28-.05c-.1-.03-.18-.06-.26-.09-.08-.04-.15-.09-.21-.14a1.07 1.07 0 01-.18-.19c-.05-.07-.09-.15-.12-.23-.04-.09-.06-.19-.08-.29a1.87 1.87 0 01-.03-.34V3.17h.79v2.59c0 .09 0 .17.01.25.01.07.02.13.04.18.01.06.03.1.06.14.02.04.05.08.08.11.03.02.06.05.1.06.04.02.08.04.12.04.05.01.1.02.16.02.05.01.11.01.17.01.08 0 .15 0 .21-.01.07-.01.13-.02.18-.04.06-.01.11-.03.15-.05.04-.02.08-.05.12-.07.03-.03.06-.06.08-.1.02-.04.04-.09.05-.14.01-.06.02-.12.02-.19.01-.07.01-.15.01-.23V3.17h.78v2.46zm-.08.27c.01-.09.02-.17.02-.27v-2.4h-.66v2.51c0 .09 0 .16-.01.23 0 .07-.01.14-.02.2a.75.75 0 01-.05.16c-.03.05-.06.09-.11.12-.03.02-.08.05-.12.07-.05.02-.1.04-.16.06-.06.02-.12.03-.19.04-.07.01-.14.01-.22.01-.06 0-.12 0-.18-.01-.05 0-.11-.01-.16-.02s-.1-.02-.14-.04a.444.444 0 01-.11-.08.4.4 0 01-.1-.12c-.02-.04-.04-.09-.06-.15a.878.878 0 01-.04-.2c-.01-.07-.01-.16-.01-.25V3.23h-.67v2.46c0 .12.01.23.03.33.02.1.04.19.07.27.04.09.08.16.12.23.05.06.11.12.17.17.06.05.13.09.2.13.07.04.15.07.24.09.09.02.18.04.28.05.1.01.2.02.31.02a2.218 2.218 0 00.69-.11c.1-.04.19-.08.28-.13.08-.05.15-.1.22-.16s.13-.13.17-.2c.06-.07.1-.15.13-.23.04-.08.06-.16.08-.25zm4.52 1.06l-.27-2.75-1.25 2.78h-.26l-1.31-2.78-.23 2.78h-.48c.12-1.28.24-2.56.37-3.84h.72l1.23 2.62 1.17-2.62H30c.14 1.28.27 2.56.41 3.84h-.8l-.01-.03zm-.22-2.87l.28 2.84h.68l-.39-3.72h-.62l-1.21 2.7-1.27-2.7h-.63l-.36 3.72h.36l.25-2.95 1.39 2.95h.18l1.32-2.95.02.11z"/><path class="fil4" d="M2.69 1.88h-.81v65.03h.81z"/><path class="fil6" d="M2.59 1.96h-.62v64.87h.62V1.96zM1.9 1.8h.84v65.19h-.92V1.8h.08z"/><path class="fil4" d="M41.13 1.88h-.8v65.03h.8z"/><path class="fil6" d="M41.04 1.96h-.62v64.87h.62V1.96zm-.7-.16h.85v65.19h-.92V1.8h.07z"/><path class="fil5" d="M11.22 65.57v-3.75h.72v3.36h1.36l-.04.39h-2.04zm3.34 0h-.72v-3.75h.72v3.75zm3.08-1.45l-.79-.04.03-.31h1.5v1.53c-.08.04-.18.08-.3.11-.12.04-.25.07-.39.1-.13.03-.28.06-.42.08-.15.02-.3.03-.43.03-.28 0-.52-.05-.71-.14-.2-.1-.36-.23-.48-.4s-.21-.38-.26-.62c-.06-.24-.09-.5-.09-.8 0-.29.05-.55.15-.79.09-.23.23-.43.4-.59a2 2 0 01.63-.38c.24-.08.51-.13.8-.13.07 0 .15.01.24.01.09.01.17.01.26.02l.25.03c.07.02.14.03.19.04l-.12.55c-.06-.02-.14-.04-.23-.06-.1-.02-.19-.04-.3-.05-.1-.02-.2-.03-.3-.04-.1-.02-.19-.02-.27-.02-.13 0-.25.01-.36.03-.12.02-.23.07-.32.14-.05.04-.1.11-.13.2-.03.09-.06.19-.08.3-.02.12-.03.24-.04.37 0 .13-.01.25-.01.38 0 .5.06.88.19 1.15.12.27.32.4.58.4.07 0 .14 0 .22-.01.07 0 .15-.01.22-.02l.2-.03c.07-.01.12-.02.17-.03v-1.01zm4.43 1.47l-2.52-2.64h-.01c.01.22.02.43.02.61 0 .08.01.16.01.24v1.77h-.42v-3.78h.31l2.53 2.62c0-.2 0-.39-.01-.57v-.23-.22c0-.07-.01-.13-.01-.19v-1.38h.43v3.77h-.33zm4.22-1.35c0 .19-.04.37-.11.54-.07.16-.17.31-.31.43-.13.13-.3.23-.51.3-.2.07-.43.11-.7.11-.22 0-.42-.02-.6-.07-.17-.05-.33-.12-.45-.22a.993.993 0 01-.29-.41c-.07-.17-.11-.38-.11-.62v-2.48h.73v2.55c0 .19.02.33.05.44.03.11.08.2.15.26.06.06.14.1.24.11a1.686 1.686 0 00.73-.02c.11-.03.2-.07.28-.13.07-.05.12-.14.14-.25.02-.12.03-.26.03-.43v-2.53h.73v2.42zm4.5 1.33l-.29-2.86-1.29 2.86h-.22l-1.35-2.86-.24 2.86h-.42l.36-3.78h.68l1.25 2.66 1.19-2.66h.67l.39 3.78h-.73z"/><path class="fil3" d="M11.19 65.57v-3.78h.79v3.36h1.36l-.05.45h-2.1v-.03zm.06-3.72v3.69h1.99l.03-.33h-1.36v-3.36h-.66zm3.31 3.75h-.75v-3.81h.78v3.81h-.03zm-.69-.06h.66v-3.69h-.66v3.69zm3.74-1.39l-.8-.04.04-.37h1.56v1.58l-.02.01c-.04.02-.08.04-.13.06-.06.02-.11.03-.17.05-.06.02-.12.04-.19.06-.06.01-.13.03-.2.04-.07.02-.14.03-.21.05l-.22.03c-.07.01-.15.02-.22.02-.07.01-.14.01-.21.01-.14 0-.27-.01-.39-.04-.12-.02-.23-.06-.33-.1-.1-.05-.2-.11-.28-.18-.08-.07-.15-.15-.21-.23a1.64 1.64 0 01-.16-.29c-.05-.11-.09-.22-.11-.34-.03-.12-.05-.25-.07-.38-.01-.14-.02-.28-.02-.43 0-.15.01-.29.04-.42.02-.13.06-.26.11-.38s.11-.23.17-.33c.07-.1.15-.19.24-.27.09-.09.19-.16.29-.22.11-.07.23-.12.35-.16.12-.05.25-.08.38-.1.14-.03.28-.04.43-.04l.11.01h.13l.13.01.13.01c.05.01.09.01.13.02.04 0 .08.01.12.01l.11.02c.03.01.06.02.09.02l.02.01-.13.61-.03-.01-.1-.03c-.04-.01-.08-.02-.13-.03l-.14-.03-.15-.02-.15-.03-.15-.01c-.05-.01-.1-.01-.14-.02H17c-.06 0-.12 0-.18.01-.06 0-.12.01-.18.02-.05.01-.11.03-.16.05a.42.42 0 00-.14.09c-.03.02-.05.04-.07.07a.37.37 0 00-.05.11c-.02.04-.03.09-.05.14-.01.05-.02.1-.03.16a.88.88 0 00-.02.17c-.01.06-.01.12-.02.19 0 .06 0 .13-.01.19v.19c0 .25.02.47.05.66.03.19.08.35.14.48.06.13.13.22.22.28.1.07.21.1.33.1h.11l.11-.01.11-.01.11-.01.1-.02.1-.01.14-.03v-.95zm-.73-.1l.79.04v1.06l-.1.02-.09.02-.1.01-.11.02-.11.01-.11.01-.11.01h-.11c-.14 0-.26-.04-.36-.11-.1-.06-.18-.17-.25-.31-.06-.13-.11-.3-.14-.49-.03-.2-.05-.42-.05-.67v-.19c.01-.07.01-.13.01-.19.01-.07.01-.13.02-.2 0-.06.01-.12.02-.17.01-.06.02-.12.04-.17.01-.05.02-.1.04-.14.02-.05.04-.09.06-.12.03-.04.05-.07.08-.09.05-.04.1-.07.16-.1a1.102 1.102 0 01.35-.07c.06-.01.13-.01.19-.01h.13c.05.01.09.01.15.02l.15.01.15.03.15.02c.05.01.1.02.14.03.05.01.09.02.13.03l.07.02.11-.49-.05-.01-.11-.02-.12-.01c-.04-.01-.08-.01-.12-.02l-.13-.01-.13-.01h-.13l-.11-.01c-.15 0-.29.01-.42.04-.13.02-.25.05-.37.09-.12.05-.23.1-.33.16-.11.06-.2.13-.29.21-.08.08-.16.17-.23.27-.06.09-.12.2-.17.31-.04.12-.08.24-.1.37-.03.13-.04.27-.04.41 0 .15.01.29.02.42.02.13.04.26.07.37.02.12.06.23.1.33.05.1.1.2.16.28.06.08.13.16.2.22.08.07.17.12.26.17.1.05.2.08.32.1.11.03.24.04.38.04.07 0 .14 0 .21-.01.07 0 .14-.01.21-.02l.22-.03c.07-.02.14-.03.21-.05.07-.01.13-.03.2-.04.06-.02.12-.04.18-.05.06-.02.12-.04.17-.06.04-.02.08-.03.11-.05V63.8h-1.44l-.03.25zm5.17 1.56l-2.47-2.59.01.54c.02.68.01 1.36.01 2.04h-.48v-3.84h.36l2.48 2.57-.01-.49v-.22c-.01-.62-.01-1.22-.01-1.83h.49v3.83h-.37l-.01-.01zm-2.48-2.68l2.52 2.63h.28v-3.71h-.36c0 .59-.01 1.17 0 1.76v.23l.01.65-2.57-2.67h-.27v3.72h.36c0-.66 0-1.32-.01-1.98l-.02-.64h.05l.01.01zm6.75 1.31c0 .2-.04.38-.11.55-.04.08-.08.16-.13.24-.06.07-.12.14-.19.2-.07.07-.14.13-.23.18-.09.05-.18.09-.29.13a2.34 2.34 0 01-.71.11c-.11 0-.22-.01-.32-.02s-.19-.03-.28-.05c-.09-.02-.18-.05-.26-.09-.07-.04-.15-.09-.21-.14-.07-.06-.12-.12-.17-.19-.05-.07-.1-.15-.13-.23a1.23 1.23 0 01-.08-.29c-.02-.1-.03-.22-.03-.34v-2.51h.79v2.58c0 .09.01.17.01.25.01.07.02.13.04.19.01.05.03.1.06.14.02.04.05.07.08.1.03.02.06.05.1.06.04.02.08.04.13.04.04.01.09.02.15.02.05.01.11.01.17.01.08 0 .15 0 .21-.01.07-.01.13-.02.18-.04.06-.01.11-.03.15-.05.04-.02.08-.05.12-.07.03-.03.06-.06.08-.1.03-.04.04-.08.05-.14.01-.06.02-.12.02-.19.01-.07.01-.14.01-.23v-2.56h.79v2.45zm-.17.52c.07-.16.1-.33.1-.52v-2.39h-.66v2.5c0 .09 0 .16-.01.23 0 .08-.01.14-.02.2s-.03.12-.05.16a.4.4 0 01-.1.12c-.04.02-.09.05-.13.07-.05.02-.1.04-.16.06-.06.02-.12.03-.19.04-.07.01-.14.01-.22.01-.06 0-.12 0-.18-.01-.05 0-.11-.01-.16-.02-.05 0-.09-.02-.14-.04a.444.444 0 01-.11-.08c-.04-.03-.07-.07-.1-.11-.02-.05-.04-.1-.06-.16a.878.878 0 01-.04-.2c-.01-.07-.01-.16-.01-.25v-2.52h-.66v2.45a1.722 1.722 0 00.09.61c.04.08.08.15.13.22.04.06.1.12.16.17a1.172 1.172 0 00.44.22c.09.02.18.04.28.05.1.01.2.02.31.02.13 0 .26-.01.37-.03.12-.02.22-.04.32-.08.1-.03.2-.08.28-.13.08-.04.16-.1.22-.16.07-.06.13-.13.18-.2.05-.07.09-.14.12-.23zm4.61.81l-.28-2.75-1.25 2.78h-.26l-1.3-2.78-.24 2.78h-.48c.12-1.28.24-2.56.37-3.84h.72l1.23 2.62 1.18-2.62h.71c.13 1.28.27 2.56.4 3.84h-.8v-.03zm-.23-2.87l.28 2.84h.68l-.39-3.72h-.62l-1.2 2.7-1.27-2.7h-.64l-.36 3.72h.36l.25-2.95 1.39 2.95h.18l1.33-2.95.01.11zM34.55 46.98l-2.78 4.78H15.06c1.53-2.27 16.36-25.78 16.1-26.2h5.48c-.2.11-.39.24-.58.32-1.41.63-2.75 2.59-3.31 3.49l-11.7 18.92h7.27c3.1 0 5.21-.51 6.23-1.31z"/><path d="M18.01 41.4l.1-4.23c0-8.39-.77-14.2-2.29-17.46-1.61-3.43-3.59-5.14-5.92-5.14-1.64 0-2.7 1.24-2.83 2.73-.03.42 0 .86.12 1.3-2.43-1.14-1.56-6.8 3.94-6.52 6.78.35 10.4 8.29 10.4 23.87l5.2-8.14c3.16-4.92 4.74-8 4.74-9.23 0-.41-.49-.62-1.47-.62h-1.29l.19-1h6.99l-.21 1h-1.35L19.48 41.38l-1.47.02z" fill="#395036" fill-rule="nonzero"/><path class="fil3" d="M15.65 21.81h-1.01v.23h.51l-.04.71c-.09 1.64-.25 3.87-.48 5.59-.18 1.34-.41 2.41-.73 2.79l-.04.05-.04.03c-.78.66-1.2 1.24-1.44 1.79-.23.56-.31 1.14-.37 1.79l-.16 19.68c.02.2.01.13.02.15.02.33.05.65.31.78h6.81c.04-.05.08-.11.1-.17.06-.12.08-.25.08-.42h1.35a2.342 2.342 0 01-.81 1.78l-.19.16-8.65-.13-.1-.02c-1.24-.36-1.3-1.18-1.37-2-.01-.14 0-.05-.01-.17v-.03c.07-6.61.11-13.22.16-19.82v-.03c.07-.76.16-1.46.48-2.2.31-.72.82-1.45 1.74-2.24.13-.22 1.39-.9 1.53-1.95.19-1.43.33-3.25.42-4.77h-.43v-2.93h2.36v1.35z"/></g></g></svg>