<?xml version="1.0" encoding="UTF-8"?>
<!DOCTYPE svg PUBLIC "-//W3C//DTD SVG 1.1//EN" "http://www.w3.org/Graphics/SVG/1.1/DTD/svg11.dtd">
<!-- Creator: CorelDRAW 2019 (64-Bit) -->
<svg xmlns="http://www.w3.org/2000/svg" xml:space="preserve" width="77px" height="104px" version="1.1" style="shape-rendering:geometricPrecision; text-rendering:geometricPrecision; image-rendering:optimizeQuality; fill-rule:evenodd; clip-rule:evenodd"
viewBox="0 0 0.97 1.31"
 xmlns:xlink="http://www.w3.org/1999/xlink">
 <defs>
  <style type="text/css">
   <![CDATA[
    .fil0 {fill:#7D203C;fill-rule:nonzero}
   ]]>
  </style>
 </defs>
 <g id="Слой_x0020_1">
  <metadata id="CorelCorpID_0Corel-Layer"/>
  <path class="fil0" d="M0.93 0.2l-0.09 0 0 -0.05c0,-0.02 -0.02,-0.04 -0.04,-0.04l-0.15 0c-0.03,-0.06 -0.09,-0.11 -0.16,-0.11 -0.08,0 -0.14,0.05 -0.16,0.11l-0.15 0c-0.03,0 -0.05,0.02 -0.05,0.04l0 0.05 -0.09 0c-0.02,0 -0.04,0.01 -0.04,0.04l0 1.03c0,0.02 0.02,0.04 0.04,0.04l0.89 0c0.03,0 0.04,-0.02 0.04,-0.04l0 -1.03c0,-0.03 -0.01,-0.04 -0.04,-0.04zm-0.71 0.09l0 0 0 -0.09 0.14 0c0.02,0 0.04,-0.02 0.04,-0.04 0.01,-0.04 0.04,-0.08 0.09,-0.08 0.04,0 0.08,0.04 0.08,0.08 0,0.02 0.02,0.04 0.04,0.04l0.15 0 0 0.09 -0.54 0zm-0.04 0.09l0 0 0.62 0c0.02,0 0.04,-0.02 0.04,-0.05l0 -0.05 0.05 0 0 0.95 -0.81 0 0 -0.95 0.05 0 0 0.05c0,0.03 0.02,0.05 0.05,0.05z"/>
  <path class="fil0" d="M0.12 0.57c0,0.01 0,0.02 0.01,0.03l0.06 0.05c0.01,0.01 0.02,0.02 0.03,0.02 0.01,0 0.02,-0.01 0.03,-0.02l0.11 -0.1c0.01,-0.01 0.01,-0.02 0.01,-0.03 0,-0.01 0,-0.02 -0.01,-0.03 -0.02,-0.02 -0.04,-0.02 -0.06,0l-0.08 0.08 -0.03 -0.03c-0.02,-0.02 -0.04,-0.02 -0.06,0 -0.01,0.01 -0.01,0.02 -0.01,0.03z"/>
  <path class="fil0" d="M0.43 0.61l0.38 0c0.03,0 0.05,-0.02 0.05,-0.04 0,-0.02 -0.02,-0.04 -0.05,-0.04l-0.38 0c-0.02,0 -0.04,0.02 -0.04,0.04 0,0.02 0.02,0.04 0.04,0.04z"/>
  <path class="fil0" d="M0.3 0.74l-0.08 0.08 -0.03 -0.03c-0.02,-0.02 -0.04,-0.02 -0.06,0 -0.01,0.01 -0.01,0.02 -0.01,0.03 0,0.01 0,0.02 0.01,0.03l0.06 0.06c0.01,0 0.02,0.01 0.03,0.01 0.01,0 0.02,-0.01 0.03,-0.01l0.11 -0.11c0.01,-0.01 0.01,-0.02 0.01,-0.03 0,-0.01 0,-0.02 -0.01,-0.03 -0.02,-0.02 -0.04,-0.02 -0.06,0zm-0.06 0.15l0 0 0 0 0 0z"/>
  <path class="fil0" d="M0.43 0.86l0.38 0c0.03,0 0.05,-0.01 0.05,-0.04 0,-0.02 -0.02,-0.04 -0.05,-0.04l-0.38 0c-0.02,0 -0.04,0.02 -0.04,0.04 0,0.03 0.02,0.04 0.04,0.04z"/>
  <path class="fil0" d="M0.3 0.99l-0.08 0.08 -0.03 -0.03c-0.02,-0.01 -0.04,-0.01 -0.06,0 -0.01,0.01 -0.01,0.02 -0.01,0.03 0,0.01 0,0.02 0.01,0.03l0.06 0.06c0.01,0.01 0.02,0.01 0.03,0.01 0.01,0 0.02,0 0.03,-0.01l0.11 -0.11c0.01,-0.01 0.01,-0.02 0.01,-0.03 0,-0.01 0,-0.02 -0.01,-0.03 -0.02,-0.01 -0.04,-0.01 -0.06,0z"/>
  <path class="fil0" d="M0.43 1.12l0.38 0c0.03,0 0.05,-0.02 0.05,-0.05 0,-0.02 -0.02,-0.04 -0.05,-0.04l-0.38 0c-0.02,0 -0.04,0.02 -0.04,0.04 0,0.03 0.02,0.05 0.04,0.05z"/>
 </g>
</svg>
