<?xml version="1.0" encoding="UTF-8"?>
<!DOCTYPE svg PUBLIC "-//W3C//DTD SVG 1.1//EN" "http://www.w3.org/Graphics/SVG/1.1/DTD/svg11.dtd">
<!-- Creator: CorelDRAW 2019 (64-Bit) -->
<svg xmlns="http://www.w3.org/2000/svg" xml:space="preserve" width="143px" height="102px" version="1.1" style="shape-rendering:geometricPrecision; text-rendering:geometricPrecision; image-rendering:optimizeQuality; fill-rule:evenodd; clip-rule:evenodd"
viewBox="0 0 4.91 3.51"
 xmlns:xlink="http://www.w3.org/1999/xlink">
 <defs>
  <style type="text/css">
   <![CDATA[
    .fil0 {fill:#7D203C;fill-rule:nonzero}
   ]]>
  </style>
 </defs>
 <g id="Слой_x0020_1">
  <metadata id="CorelCorpID_0Corel-Layer"/>
  <path class="fil0" d="M4.91 1.62l-1.07 -1.09 -0.01 0 -0.65 0 0 -0.53 -3.18 0 0 2.81 0.97 0c0,0.02 -0.01,0.05 -0.01,0.07 0,0.35 0.28,0.63 0.63,0.63 0.34,0 0.62,-0.28 0.62,-0.63 0,-0.02 0,-0.05 0,-0.07l1.1 0c-0.01,0.02 -0.01,0.05 -0.01,0.07 0,0.35 0.28,0.63 0.63,0.63 0.34,0 0.62,-0.28 0.62,-0.63 0,-0.02 0,-0.05 0,-0.07l0.36 0 0 -1.19zm-1.73 -0.86l0 0 0.55 0 0.94 0.96 0 0.86 -0.2 0c-0.11,-0.2 -0.32,-0.32 -0.54,-0.32 -0.23,0 -0.44,0.12 -0.55,0.32l-0.2 0 0 -1.82zm-0.24 -0.53l0 0 0 2.35 -0.81 0c-0.11,-0.2 -0.31,-0.32 -0.54,-0.32 -0.23,0 -0.44,0.12 -0.55,0.32l-0.81 0 0 -2.35 2.71 0zm-1.35 2.26l0 0c0.21,0 0.39,0.17 0.39,0.39 0,0.22 -0.18,0.39 -0.39,0.39 -0.22,0 -0.39,-0.17 -0.39,-0.39 0,-0.22 0.17,-0.39 0.39,-0.39zm2.34 0l0 0c0.21,0 0.39,0.17 0.39,0.39 0,0.22 -0.18,0.39 -0.39,0.39 -0.22,0 -0.39,-0.17 -0.39,-0.39 0,-0.22 0.17,-0.39 0.39,-0.39z"/>
  <polygon class="fil0" points="0.63,1.47 0.9,1.47 0.9,1.35 0.63,1.35 0.63,1.21 0.93,1.21 0.93,1.09 0.5,1.09 0.5,1.72 0.63,1.72 "/>
  <path class="fil0" d="M1.15 1.52l0.11 0 0.15 0.2 0.17 0 -0.17 -0.22c0.08,-0.04 0.12,-0.1 0.12,-0.2 0,-0.07 -0.02,-0.13 -0.06,-0.16 -0.04,-0.04 -0.11,-0.05 -0.21,-0.05l-0.24 0 0 0.63 0.13 0 0 -0.2zm0.25 -0.22l0 0c0,0.03 -0.01,0.06 -0.03,0.07 -0.01,0.01 -0.04,0.03 -0.11,0.03l-0.11 0 0 -0.19 0.12 0c0.06,0 0.09,0.01 0.1,0.02 0.02,0.01 0.03,0.03 0.03,0.07z"/>
  <polygon class="fil0" points="2.12,1.6 1.78,1.6 1.78,1.46 2.07,1.46 2.07,1.34 1.78,1.34 1.78,1.21 2.1,1.21 2.1,1.09 1.65,1.09 1.65,1.72 2.12,1.72 "/>
  <polygon class="fil0" points="2.68,1.6 2.35,1.6 2.35,1.46 2.64,1.46 2.64,1.34 2.35,1.34 2.35,1.21 2.67,1.21 2.67,1.09 2.22,1.09 2.22,1.72 2.68,1.72 "/>
 </g>
</svg>
