<?xml version="1.0" encoding="UTF-8"?>
<!DOCTYPE svg PUBLIC "-//W3C//DTD SVG 1.1//EN" "http://www.w3.org/Graphics/SVG/1.1/DTD/svg11.dtd">
<!-- Creator: CorelDRAW 2019 (64-Bit) -->
<svg xmlns="http://www.w3.org/2000/svg" xml:space="preserve" width="80px" height="80px" version="1.1" style="shape-rendering:geometricPrecision; text-rendering:geometricPrecision; image-rendering:optimizeQuality; fill-rule:evenodd; clip-rule:evenodd"
viewBox="0 0 1.3 1.3"
 xmlns:xlink="http://www.w3.org/1999/xlink">
 <defs>
  <style type="text/css">
   <![CDATA[
    .fil0 {fill:#F6E9D0}
   ]]>
  </style>
 </defs>
 <g id="Слой_x0020_1">
  <metadata id="CorelCorpID_0Corel-Layer"/>
  <g id="_1614487536">
   <path class="fil0" d="M0.52 0.59c0.01,-0.12 0.09,-0.2 0.21,-0.21l0.27 -0.28c-0.07,-0.04 -0.16,-0.08 -0.25,-0.09l-0.49 0.49 0.17 0.18 0.09 -0.09z"/>
   <path class="fil0" d="M1.3 0.65c0,-0.2 -0.09,-0.38 -0.23,-0.5l-0.23 0.23c0.12,0.03 0.19,0.13 0.19,0.26 0,0.05 -0.03,0.12 -0.07,0.19l0.21 0.21c0.08,-0.11 0.13,-0.25 0.13,-0.39z"/>
   <path class="fil0" d="M0.59 0.64c0,0.05 0.07,0.19 0.18,0.35 0.11,-0.15 0.18,-0.29 0.18,-0.35 0,-0.12 -0.07,-0.18 -0.18,-0.18 -0.11,0 -0.18,0.06 -0.18,0.18zm0.18 -0.08l0 0c0.04,0 0.08,0.04 0.08,0.08 0,0.05 -0.04,0.09 -0.08,0.09 -0.05,0 -0.09,-0.04 -0.09,-0.09 0,-0.04 0.04,-0.08 0.09,-0.08z"/>
   <path class="fil0" d="M0.65 1.3c0.18,0 0.35,-0.08 0.47,-0.2l-0.2 -0.2c-0.05,0.09 -0.11,0.16 -0.12,0.18l-0.03 0.04 -0.03 -0.04c-0.02,-0.03 -0.18,-0.24 -0.22,-0.38l-0.37 0.37c0.12,0.14 0.3,0.23 0.5,0.23z"/>
   <path class="fil0" d="M0.37 0.73l-0.32 -0.32c-0.03,0.07 -0.05,0.15 -0.05,0.24 0,0.13 0.04,0.25 0.1,0.35l0.27 -0.27z"/>
   <path class="fil0" d="M0.08 0.33l0.12 0.11 0.44 -0.44c-0.24,0 -0.44,0.13 -0.56,0.33z"/>
  </g>
 </g>
</svg>
