<?xml version="1.0" encoding="UTF-8"?>
<!DOCTYPE svg PUBLIC "-//W3C//DTD SVG 1.1//EN" "http://www.w3.org/Graphics/SVG/1.1/DTD/svg11.dtd">
<!-- Creator: CorelDRAW 2019 (64-Bit) -->
<svg xmlns="http://www.w3.org/2000/svg" xml:space="preserve" width="106px" height="103px" version="1.1" style="shape-rendering:geometricPrecision; text-rendering:geometricPrecision; image-rendering:optimizeQuality; fill-rule:evenodd; clip-rule:evenodd"
viewBox="0 0 2.19 2.12"
 xmlns:xlink="http://www.w3.org/1999/xlink">
 <defs>
  <style type="text/css">
   <![CDATA[
    .fil0 {fill:#7D203C;fill-rule:nonzero}
   ]]>
  </style>
 </defs>
 <g id="Слой_x0020_1">
  <metadata id="CorelCorpID_0Corel-Layer"/>
  <path class="fil0" d="M0.89 2.12c0.04,0 0.07,-0.03 0.07,-0.05l0 -0.11c0,-0.02 -0.03,-0.05 -0.07,-0.05l-0.82 0c-0.04,0 -0.07,0.03 -0.07,0.05l0 0.11c0,0.02 0.03,0.05 0.07,0.05l0.82 0z"/>
  <path class="fil0" d="M1.64 1.4c-0.02,-0.02 -0.06,-0.03 -0.11,-0.05 -0.04,-0.02 -0.06,-0.03 -0.08,-0.04 -0.01,-0.01 -0.02,-0.02 -0.02,-0.04 0,-0.02 0.01,-0.04 0.02,-0.05 0.02,-0.02 0.03,-0.02 0.06,-0.02 0.04,0 0.07,0.03 0.09,0.09l0.11 -0.05c-0.03,-0.08 -0.08,-0.13 -0.17,-0.14l0 -0.08 -0.08 0 0 0.08c-0.05,0 -0.1,0.03 -0.12,0.06 -0.03,0.04 -0.04,0.08 -0.04,0.13 0,0.03 0,0.06 0.02,0.09 0.01,0.02 0.03,0.04 0.06,0.06 0.02,0.01 0.06,0.03 0.1,0.04 0.05,0.02 0.08,0.03 0.09,0.04 0.01,0.01 0.02,0.03 0.02,0.05 0,0.02 -0.01,0.04 -0.02,0.05 -0.01,0.02 -0.04,0.02 -0.06,0.02 -0.07,0 -0.1,-0.03 -0.11,-0.1l-0.12 0.03c0.02,0.11 0.08,0.17 0.18,0.18l0 0.09 0.08 0 0 -0.09c0.06,-0.01 0.11,-0.03 0.14,-0.06 0.03,-0.04 0.05,-0.08 0.05,-0.14 0,-0.03 -0.01,-0.06 -0.02,-0.09 -0.02,-0.03 -0.04,-0.05 -0.07,-0.06z"/>
  <path class="fil0" d="M1.5 0.75c-0.37,0 -0.68,0.31 -0.68,0.68 0,0.38 0.31,0.69 0.68,0.69 0.38,0 0.69,-0.31 0.69,-0.69 0,-0.37 -0.31,-0.68 -0.69,-0.68zm0 1.23l0 0c-0.3,0 -0.54,-0.24 -0.54,-0.55 0,-0.3 0.24,-0.54 0.54,-0.54 0.3,0 0.55,0.24 0.55,0.54 0,0.31 -0.25,0.55 -0.55,0.55z"/>
  <path class="fil0" d="M0.07 1.84l0.8 0c-0.04,-0.06 -0.07,-0.13 -0.09,-0.2l-0.71 0c-0.04,0 -0.07,0.02 -0.07,0.05l0 0.1c0,0.03 0.03,0.05 0.07,0.05z"/>
  <path class="fil0" d="M0.07 1.57l0.69 0c0,-0.04 -0.01,-0.09 -0.01,-0.14 0,-0.02 0,-0.04 0,-0.06l-0.68 0c-0.04,0 -0.07,0.02 -0.07,0.05l0 0.1c0,0.03 0.03,0.05 0.07,0.05z"/>
  <path class="fil0" d="M1.09 0.75l0.1 0c0.1,-0.04 0.2,-0.07 0.31,-0.07 0.11,0 0.22,0.03 0.31,0.07l0.1 0c0.04,0 0.07,-0.02 0.07,-0.05l0 -0.1c0,-0.03 -0.03,-0.05 -0.07,-0.05l-0.82 0c-0.04,0 -0.07,0.02 -0.07,0.05l0 0.1c0,0.03 0.03,0.05 0.07,0.05z"/>
  <path class="fil0" d="M0.07 0.75l0.82 0c0.04,0 0.07,-0.02 0.07,-0.05l0 -0.1c0,-0.03 -0.03,-0.05 -0.07,-0.05l-0.82 0c-0.04,0 -0.07,0.02 -0.07,0.05l0 0.1c0,0.03 0.03,0.05 0.07,0.05z"/>
  <path class="fil0" d="M1.09 0.48l0.82 0c0.04,0 0.07,-0.02 0.07,-0.05l0 -0.11c0,-0.02 -0.03,-0.05 -0.07,-0.05l-0.82 0c-0.04,0 -0.07,0.03 -0.07,0.05l0 0.11c0,0.03 0.03,0.05 0.07,0.05z"/>
  <path class="fil0" d="M0.07 1.3l0.69 0c0.02,-0.07 0.04,-0.14 0.07,-0.21l-0.76 0c-0.04,0 -0.07,0.03 -0.07,0.05l0 0.11c0,0.02 0.03,0.05 0.07,0.05z"/>
  <path class="fil0" d="M1.09 0.2l0.82 0c0.04,0 0.07,-0.02 0.07,-0.05l0 -0.1c0,-0.03 -0.03,-0.05 -0.07,-0.05l-0.82 0c-0.04,0 -0.07,0.02 -0.07,0.05l0 0.1c0,0.03 0.03,0.05 0.07,0.05z"/>
  <path class="fil0" d="M0.07 1.02l0.8 0c0.03,-0.03 0.06,-0.07 0.09,-0.1l0 -0.05c0,-0.03 -0.03,-0.05 -0.07,-0.05l-0.82 0c-0.04,0 -0.07,0.02 -0.07,0.05l0 0.1c0,0.03 0.03,0.05 0.07,0.05z"/>
 </g>
</svg>
