<?xml version="1.0" encoding="UTF-8"?>
<!DOCTYPE svg PUBLIC "-//W3C//DTD SVG 1.1//EN" "http://www.w3.org/Graphics/SVG/1.1/DTD/svg11.dtd">
<!-- Creator: CorelDRAW 2019 (64-Bit) -->
<svg xmlns="http://www.w3.org/2000/svg" xml:space="preserve" width="255px" height="275px" version="1.1" style="shape-rendering:geometricPrecision; text-rendering:geometricPrecision; image-rendering:optimizeQuality; fill-rule:evenodd; clip-rule:evenodd"
viewBox="0 0 194.51 209.67"
 xmlns:xlink="http://www.w3.org/1999/xlink">
 <defs>
  <style type="text/css">
   <![CDATA[
    .fil2 {fill:#288085}
    .fil12 {fill:#342214}
    .fil0 {fill:#55969D}
    .fil7 {fill:#562C19}
    .fil6 {fill:#703D22}
    .fil1 {fill:#A24323}
    .fil11 {fill:#A82623}
    .fil5 {fill:#BC9F82}
    .fil10 {fill:#CA3029}
    .fil9 {fill:#D43329}
    .fil4 {fill:#DCC5A1}
    .fil3 {fill:#EDD9B4}
    .fil8 {fill:white}
   ]]>
  </style>
 </defs>
 <g id="blok_x0020_5">
  <metadata id="CorelCorpID_0Corel-Layer"/>
  <g id="avatar">
   <g>
    <path class="fil0" d="M80.5 137.38c0.18,0.27 7.26,0.5 15.11,0.77l3.29 0c7.89,-0.27 14.97,-0.5 15.11,-0.77 10.64,16.73 36.35,24.67 55.92,29.04 2.43,0.54 4.55,1.4 6.45,2.53 11.41,-15.92 18.13,-35.45 18.13,-56.55 0.04,-53.72 -43.52,-97.28 -97.23,-97.28 -53.72,0 -97.28,43.56 -97.28,97.32 0,21.11 6.72,40.63 18.13,56.55 1.89,-1.12 4.01,-1.98 6.45,-2.52 19.57,-4.38 45.28,-12.31 55.92,-29.09z"/>
    <path class="fil1" d="M98.58 167.69c-55.47,1.12 -61.65,-64.31 -59.66,-96.65 3.74,-60.29 58.45,-84.47 80.77,-63.77 23.72,0 34.86,29.5 37.52,63.14 3.61,44.83 -12.94,96.33 -58.63,97.28z"/>
    <path class="fil2" d="M94.25 209.67l0 -42.57 3.03 -3.11 0 0 3.02 3.11 0 42.57c31.39,-0.95 59.03,-16.77 76.12,-40.68 -1.89,-1.12 -4.01,-1.98 -6.45,-2.52 -19.57,-4.38 -45.27,-12.31 -55.92,-29.04 -0.18,0.27 -7.26,0.49 -15.11,0.76l-3.29 0c-7.89,-0.27 -14.97,-0.49 -15.11,-0.76 -10.64,16.73 -36.34,24.66 -55.92,29.04 -2.43,0.54 -4.55,1.4 -6.45,2.52 17.05,23.91 44.7,39.73 76.08,40.68z"/>
    <path class="fil3" d="M115.72 93.32c0,-12.18 -9.2,-18.27 -18.44,-18.27l0 88.89 18.44 -25.52 0 -45.1z"/>
    <path class="fil4" d="M78.83 93.32l0 45.14 18.45 25.48 0 -88.93c-9.2,0 -18.45,6.09 -18.45,18.31z"/>
    <path class="fil5" d="M115.72 93.32l0 30.22c-6.99,5.45 -13.71,8.52 -18.44,8.52 -4.74,0 -11.46,-3.07 -18.45,-8.52l0 -30.22c0.05,-24.4 36.89,-24.4 36.89,0z"/>
    <g>
     <path class="fil6" d="M88.17 66.26c-5.33,-3.11 -13.44,-4.28 -21.92,-3.7 -8.48,0.59 -14.39,3.97 -14.66,4.15 -0.27,0.18 -0.22,2.12 -0.22,3.34 0,1.22 0.13,2.25 0.54,2.66 0.4,0.41 2.57,1.13 3.33,4.47 0.77,3.33 2.62,10.5 7.81,14.7 5.18,4.19 11,5.09 18.08,2.66 7.08,-2.44 9.61,-8.44 10.15,-9.47 0.54,-1.04 2.07,-6.09 2.75,-7.4 0.68,-1.31 1.49,-1.98 2.52,-1.98l0 -6.63c-2.12,0.04 -3.06,0.31 -8.38,-2.8l0 0zm2.66 11.41c-0.68,5.95 -5.91,16.01 -14.89,16.42 -8.97,0.4 -14.88,-5.28 -16.86,-10.29 -1.99,-5 -2.89,-12.8 3.38,-15.87 6.27,-3.07 15.47,-3.07 22.1,-0.54 6.63,2.52 6.72,6.31 6.27,10.28z"/>
    </g>
    <g>
     <path class="fil7" d="M99.08 77.67c0.68,1.31 2.21,6.36 2.75,7.4 0.54,1.03 3.07,7.03 10.15,9.47 7.08,2.43 12.9,1.53 18.08,-2.66 5.19,-4.2 7.04,-11.37 7.8,-14.71 0.77,-3.33 2.94,-4.05 3.34,-4.46 0.41,-0.41 0.54,-1.44 0.54,-2.66 0,-1.22 0.05,-3.16 -0.22,-3.34 -0.27,-0.18 -6.18,-3.56 -14.66,-4.15 -8.48,-0.58 -16.6,0.59 -21.92,3.7 -5.32,3.11 -6.27,2.84 -8.39,2.84l0 6.63c1.09,0 1.85,0.63 2.53,1.94l0 0zm9.47 -10.28c6.63,-2.53 15.83,-2.53 22.1,0.54 6.27,3.07 5.36,10.91 3.38,15.87 -1.98,5.01 -7.89,10.74 -16.87,10.29 -8.97,-0.41 -14.2,-10.47 -14.88,-16.42 -0.45,-3.97 -0.36,-7.76 6.27,-10.28z"/>
    </g>
    <path class="fil4" d="M50.06 62.97c-1.9,-1.13 -3.84,-1.49 -5.5,-0.77 -3.88,1.67 -4.65,8.39 -1.81,15.07 2.84,6.62 8.26,10.68 12.13,9.1 9.88,22.82 31.57,38.16 42.4,38.16l0 -112.25c-31.26,0 -46.91,26.2 -47.22,50.69z"/>
    <path class="fil3" d="M151.03 62.2c-1.94,-0.85 -4.33,-0.18 -6.54,1.49 0,-24.67 -15.65,-51.41 -47.21,-51.41l0 112.25c10.91,0 32.78,-15.56 42.57,-38.65 0.27,0.18 0.54,0.36 0.81,0.45 3.88,1.67 9.29,-2.39 12.18,-9.06 2.88,-6.68 2.07,-13.4 -1.81,-15.07z"/>
    <polygon class="fil8" points="115.72,138.42 97.28,163.94 97.95,164.62 110.62,177.74 128.84,151.36 "/>
    <polygon class="fil8" points="78.83,138.42 65.71,151.36 83.93,177.74 96.6,164.62 97.28,163.94 "/>
    <g id="_1377251200">
     <g>
      <path class="fil9" d="M102.19 104.82c0,0 0.18,3.11 -5.14,3.11 -1.53,0 -5.05,-0.67 -5.05,-3.02 3.16,0.72 6.85,0.9 10.19,-0.09z"/>
      <path class="fil10" d="M99.13 103.51c1.17,0.18 3.24,1.27 3.11,1.27 -3.34,0.99 -7.08,0.81 -10.2,0.09 -0.04,0 -0.04,0 -0.09,-0.05 1.09,-0.45 2.44,-1.35 3.48,-1.26 0.58,0.04 1.21,0.45 1.71,0.45 0.72,0.04 1.22,-0.59 1.99,-0.5z"/>
      <path class="fil11" d="M90.24 104.41c4.01,1.67 9.56,1.81 13.48,-0.04 0.09,-0.05 0.05,-0.18 -0.09,-0.18 -4.64,1.49 -8.56,1.22 -13.39,0.22 0,-0.04 0,0 0,0z"/>
     </g>
     <path class="fil12" d="M78.56 72.3c2.53,0 4.6,2.35 4.6,5.24 0,2.88 -2.07,5.23 -4.6,5.23 -2.57,0 -4.6,-2.35 -4.6,-5.23 -0.04,-2.89 2.03,-5.24 4.6,-5.24z"/>
     <path class="fil12" d="M115.99 72.3c2.53,0 4.6,2.35 4.6,5.24 0,2.88 -2.07,5.23 -4.6,5.23 -2.57,0 -4.6,-2.35 -4.6,-5.23 0,-2.89 2.08,-5.24 4.6,-5.24z"/>
    </g>
    <path class="fil1" d="M146.07 78.17c14.52,-62.15 -29.22,-72.7 -54.79,-72.7 -28.78,0 -50.42,34.14 -45.6,73.87 15.34,-9.25 28.87,-27.51 62.37,-57.32 -4.87,8.75 -14.38,24.67 -46.72,53.49 17.41,2.88 49.79,-19.04 67.06,-41.99 4.2,16.28 10.11,34.14 17.68,44.65z"/>
    <path class="fil8" d="M100.3 167.05l-3.02 -3.11 0 0 -3.03 3.11 0 42.58c1,0.04 2.03,0.04 3.03,0.04l0 -0.04 0 0 0 0.04c1.03,0 2.02,0 3.02,-0.04l0 -42.58z"/>
   </g>
  </g>
 </g>
</svg>
