<svg xmlns="http://www.w3.org/2000/svg" width="143" height="102" viewBox="0 0 4.91 3.51" shape-rendering="geometricPrecision" text-rendering="geometricPrecision" image-rendering="optimizeQuality" fill-rule="evenodd" clip-rule="evenodd"><defs><style>.fil0{fill:#7d203c;fill-rule:nonzero}</style></defs><g id="Слой_x0020_1"><path class="fil0" d="M4.91 1.62L3.84.53h-.66V0H0v2.81h.97c0 .02-.01.05-.01.07a.625.625 0 101.25 0v-.07h1.1c-.01.02-.01.05-.01.07a.625.625 0 101.25 0v-.07h.36V1.62zM3.18.76h.55l.94.96v.86h-.2a.622.622 0 00-1.09 0h-.2V.76zM2.94.23v2.35h-.81a.607.607 0 00-.54-.32c-.23 0-.44.12-.55.32H.23V.23h2.71zM1.59 2.49a.39.39 0 11-.39.39c0-.22.17-.39.39-.39zm2.34 0a.39.39 0 11-.39.39c0-.22.17-.39.39-.39z"/><path class="fil0" d="M.63 1.47H.9v-.12H.63v-.14h.3v-.12H.5v.63h.13zM1.15 1.52h.11l.15.2h.17l-.17-.22c.08-.04.12-.1.12-.2 0-.07-.02-.13-.06-.16-.04-.04-.11-.05-.21-.05h-.24v.63h.13v-.2zm.25-.22c0 .03-.01.06-.03.07-.01.01-.04.03-.11.03h-.11v-.19h.12c.06 0 .09.01.1.02.02.01.03.03.03.07zM2.12 1.6h-.34v-.14h.29v-.12h-.29v-.13h.32v-.12h-.45v.63h.47zM2.68 1.6h-.33v-.14h.29v-.12h-.29v-.13h.32v-.12h-.45v.63h.46z"/></g></svg>