<svg xmlns="http://www.w3.org/2000/svg" width="99" height="103" viewBox="0 0 1.91 1.98" shape-rendering="geometricPrecision" text-rendering="geometricPrecision" image-rendering="optimizeQuality" fill-rule="evenodd" clip-rule="evenodd"><defs><style>.fil0{fill:#7d203c;fill-rule:nonzero}</style></defs><g id="Слой_x0020_1"><path class="fil0" d="M.95.18c-.49 0-.9.4-.9.9 0 .49.41.9.9.9.5 0 .9-.41.9-.9 0-.5-.4-.9-.9-.9zm.69.9c0 .38-.31.68-.69.68a.68.68 0 01-.68-.68C.27.7.58.39.95.39c.38 0 .69.31.69.69zM.11.47C.13.47.16.46.18.44l.3-.25C.5.17.52.15.52.12.52.09.51.06.49.04A.084.084 0 00.42 0C.39 0 .37.01.34.03l-.3.25C.02.3 0 .32 0 .35c0 .03.01.06.03.08.01.02.04.04.07.04h.01zM1.56.03a.1.1 0 00-.15.01c-.04.04-.03.11.02.15l.3.25c.02.02.05.03.07.03.03 0 .06-.01.08-.04.02-.02.03-.05.03-.08S1.89.3 1.87.28L1.56.03z"/><path class="fil0" d="M1.3.76c-.02 0-.05.01-.06.02l-.43.44-.15-.16c-.04-.03-.09-.03-.12 0-.03.04-.03.09 0 .12l.21.21c.02.02.04.03.06.03.02 0 .04-.01.06-.03L1.36.9c.03-.03.03-.08 0-.12C1.34.77 1.32.76 1.3.76z"/></g></svg>