<svg xmlns="http://www.w3.org/2000/svg" width="106" height="103" viewBox="0 0 2.19 2.12" shape-rendering="geometricPrecision" text-rendering="geometricPrecision" image-rendering="optimizeQuality" fill-rule="evenodd" clip-rule="evenodd"><defs><style>.fil0{fill:#7d203c;fill-rule:nonzero}</style></defs><g id="Слой_x0020_1"><path class="fil0" d="M.89 2.12c.04 0 .07-.03.07-.05v-.11c0-.02-.03-.05-.07-.05H.07c-.04 0-.07.03-.07.05v.11c0 .02.03.05.07.05h.82zM1.64 1.4c-.02-.02-.06-.03-.11-.05l-.08-.04c-.01-.01-.02-.02-.02-.04s.01-.04.02-.05c.02-.02.03-.02.06-.02.04 0 .07.03.09.09l.11-.05c-.03-.08-.08-.13-.17-.14v-.08h-.08v.08c-.05 0-.1.03-.12.06-.03.04-.04.08-.04.13 0 .03 0 .06.02.09.01.02.03.04.06.06.02.01.06.03.1.04.05.02.08.03.09.04.01.01.02.03.02.05 0 .02-.01.04-.02.05-.01.02-.04.02-.06.02-.07 0-.1-.03-.11-.1l-.12.03c.02.11.08.17.18.18v.09h.08v-.09a.26.26 0 00.14-.06c.03-.04.05-.08.05-.14 0-.03-.01-.06-.02-.09a.134.134 0 00-.07-.06z"/><path class="fil0" d="M1.5.75c-.37 0-.68.31-.68.68 0 .38.31.69.68.69.38 0 .69-.31.69-.69A.69.69 0 001.5.75zm0 1.23a.54.54 0 01-.54-.55c0-.3.24-.54.54-.54.3 0 .55.24.55.54 0 .31-.25.55-.55.55zM.07 1.84h.8a.722.722 0 01-.09-.2H.07c-.04 0-.07.02-.07.05v.1c0 .03.03.05.07.05zM.07 1.57h.69c0-.04-.01-.09-.01-.14v-.06H.07c-.04 0-.07.02-.07.05v.1c0 .03.03.05.07.05z"/><path class="fil0" d="M1.09.75h.1c.1-.04.2-.07.31-.07.11 0 .22.03.31.07h.1c.04 0 .07-.02.07-.05V.6c0-.03-.03-.05-.07-.05h-.82c-.04 0-.07.02-.07.05v.1c0 .03.03.05.07.05zM.07.75h.82C.93.75.96.73.96.7V.6C.96.57.93.55.89.55H.07C.03.55 0 .57 0 .6v.1c0 .03.03.05.07.05zM1.09.48h.82c.04 0 .07-.02.07-.05V.32c0-.02-.03-.05-.07-.05h-.82c-.04 0-.07.03-.07.05v.11c0 .03.03.05.07.05zM.07 1.3h.69c.02-.07.04-.14.07-.21H.07c-.04 0-.07.03-.07.05v.11c0 .02.03.05.07.05zM1.09.2h.82c.04 0 .07-.02.07-.05v-.1c0-.03-.03-.05-.07-.05h-.82c-.04 0-.07.02-.07.05v.1c0 .03.03.05.07.05zM.07 1.02h.8C.9.99.93.95.96.92V.87C.96.84.93.82.89.82H.07C.03.82 0 .84 0 .87v.1c0 .03.03.05.07.05z"/></g></svg>