<svg xmlns="http://www.w3.org/2000/svg" width="112" height="103" viewBox="0 0 3 2.76" shape-rendering="geometricPrecision" text-rendering="geometricPrecision" image-rendering="optimizeQuality" fill-rule="evenodd" clip-rule="evenodd"><defs><style>.fil0{fill:#7d203c;fill-rule:nonzero}</style></defs><g id="Слой_x0020_1"><path class="fil0" d="M2.15.45h.12v.19c0 .03.03.06.06.06.04 0 .07-.03.07-.06V.45h.12c.02 0 .04-.01.06-.03.01-.02.01-.04 0-.06L2.39.03C2.38.01 2.36 0 2.33 0c-.02 0-.04.01-.05.03l-.19.33c-.01.01-.01.04 0 .06.01.02.03.03.06.03zm.18-.26l.08.14h-.16l.08-.14zM.49 1.18h.13v.18c0 .04.03.06.06.06.04 0 .06-.02.06-.06v-.18h.13c.02 0 .04-.01.05-.04.01-.01.01-.04 0-.06L.73.76C.72.74.7.72.68.72.66.72.64.74.63.76l-.19.32c-.01.02-.01.04 0 .06.01.02.03.04.05.04zM.68.91l.08.14H.6L.68.91zM.07 2.02h1.19c.04 0 .07-.03.07-.06v-.24c0-.04-.03-.07-.07-.07H.07c-.04 0-.07.03-.07.07v.24c0 .03.03.06.07.06zM.07 2.76h1.19c.04 0 .07-.03.07-.06v-.24c0-.04-.03-.07-.07-.07H.07c-.04 0-.07.03-.07.07v.24c0 .03.03.06.07.06zM1.74 1.31h1.19c.04 0 .07-.02.07-.06v-.24c0-.04-.03-.07-.07-.07H1.74c-.04 0-.07.03-.07.07v.24c0 .04.03.06.07.06zM1.74 2.04h1.19c.04 0 .07-.03.07-.07v-.23c0-.04-.03-.07-.07-.07H1.74c-.04 0-.07.03-.07.07v.23c0 .04.03.07.07.07zM1.74 2.76h1.19c.04 0 .07-.03.07-.06v-.24c0-.04-.03-.07-.07-.07H1.74c-.04 0-.07.03-.07.07v.24c0 .03.03.06.07.06z"/></g></svg>