<svg xmlns="http://www.w3.org/2000/svg" width="77" height="104" viewBox="0 0 0.97 1.31" shape-rendering="geometricPrecision" text-rendering="geometricPrecision" image-rendering="optimizeQuality" fill-rule="evenodd" clip-rule="evenodd"><defs><style>.fil0{fill:#7d203c;fill-rule:nonzero}</style></defs><g id="Слой_x0020_1"><path class="fil0" d="M.93.2H.84V.15C.84.13.82.11.8.11H.65C.62.05.56 0 .49 0 .41 0 .35.05.33.11H.18C.15.11.13.13.13.15V.2H.04C.02.2 0 .21 0 .24v1.03c0 .02.02.04.04.04h.89c.03 0 .04-.02.04-.04V.24C.97.21.96.2.93.2zM.22.29V.2h.14C.38.2.4.18.4.16.41.12.44.08.49.08c.04 0 .08.04.08.08C.57.18.59.2.61.2h.15v.09H.22zM.18.38H.8C.82.38.84.36.84.33V.28h.05v.95H.08V.28h.05v.05c0 .03.02.05.05.05z"/><path class="fil0" d="M.12.57c0 .01 0 .02.01.03l.06.05C.2.66.21.67.22.67.23.67.24.66.25.65l.11-.1C.37.54.37.53.37.52.37.51.37.5.36.49.34.47.32.47.3.49L.22.57.19.54C.17.52.15.52.13.54.12.55.12.56.12.57zM.43.61h.38C.84.61.86.59.86.57S.84.53.81.53H.43C.41.53.39.55.39.57s.02.04.04.04zM.3.74L.22.82.19.79C.17.77.15.77.13.79.12.8.12.81.12.82c0 .01 0 .02.01.03l.06.06C.2.91.21.92.22.92.23.92.24.91.25.91L.36.8C.37.79.37.78.37.77.37.76.37.75.36.74.34.72.32.72.3.74zM.24.89zM.43.86h.38C.84.86.86.85.86.82.86.8.84.78.81.78H.43C.41.78.39.8.39.82c0 .03.02.04.04.04zM.3.99l-.08.08-.03-.03a.064.064 0 00-.06 0c-.01.01-.01.02-.01.03 0 .01 0 .02.01.03l.06.06c.01.01.02.01.03.01.01 0 .02 0 .03-.01l.11-.11c.01-.01.01-.02.01-.03 0-.01 0-.02-.01-.03a.064.064 0 00-.06 0zM.43 1.12h.38c.03 0 .05-.02.05-.05 0-.02-.02-.04-.05-.04H.43c-.02 0-.04.02-.04.04 0 .03.02.05.04.05z"/></g></svg>