<svg xmlns="http://www.w3.org/2000/svg" width="102" height="102" viewBox="0 0 1.69 1.69" shape-rendering="geometricPrecision" text-rendering="geometricPrecision" image-rendering="optimizeQuality" fill-rule="evenodd" clip-rule="evenodd"><path d="M1.58.42a.844.844 0 00-1.46 0H.11v.01a.847.847 0 00.73 1.26c.3 0 .58-.16.73-.42.01 0 .01-.01.01-.01.07-.13.11-.27.11-.42a.81.81 0 00-.11-.41V.42zM.9.39V.14c.09.07.16.16.21.25H.9zm.17 1.15c.07-.08.12-.16.16-.25h.19c-.09.12-.21.2-.35.25zM.9 1.18V.9h.32c0 .09-.02.19-.06.28H.9zm.21.11c-.06.1-.12.18-.21.25v-.25h.21zm.12-.9a.776.776 0 00-.16-.24c.14.04.26.13.35.24h-.19zM.9.78V.51h.26c.04.09.06.18.06.27H.9zm.68.12a.9.9 0 01-.08.28h-.22c.03-.09.05-.19.05-.28h.25zm0-.12h-.25c0-.09-.02-.18-.05-.27h.22c.04.08.07.17.08.27zm-.79.51v.25a.958.958 0 01-.2-.25h.2zm-.37-.11H.2A.694.694 0 01.12.9h.24c.01.09.03.19.06.28zm-.3-.4C.13.68.15.59.2.51h.22C.39.59.37.69.36.78H.12zm.34.51c.05.09.1.18.17.25a.697.697 0 01-.36-.25h.19zM.79.9v.28H.54A.706.706 0 01.48.9h.31zM.27.39C.36.27.49.18.63.14.57.22.51.3.47.39h-.2zm.52.12v.27H.48C.48.69.5.6.54.51h.25zm0-.36v.24h-.2C.64.3.71.22.79.15z" fill="#7d203c" fill-rule="nonzero"/></svg>