<?xml version="1.0" encoding="UTF-8"?>
<!DOCTYPE svg PUBLIC "-//W3C//DTD SVG 1.1//EN" "http://www.w3.org/Graphics/SVG/1.1/DTD/svg11.dtd">
<!-- Creator: CorelDRAW 2019 (64-Bit) -->
<svg xmlns="http://www.w3.org/2000/svg" xml:space="preserve" width="80px" height="80px" version="1.1" style="shape-rendering:geometricPrecision; text-rendering:geometricPrecision; image-rendering:optimizeQuality; fill-rule:evenodd; clip-rule:evenodd"
viewBox="0 0 1.25 1.25"
 xmlns:xlink="http://www.w3.org/1999/xlink">
 <defs>
  <style type="text/css">
   <![CDATA[
    .fil0 {fill:#F6E9D0}
   ]]>
  </style>
 </defs>
 <g id="Слой_x0020_1">
  <metadata id="CorelCorpID_0Corel-Layer"/>
  <path class="fil0" d="M0.62 0c-0.34,0 -0.62,0.28 -0.62,0.62 0,0.35 0.28,0.63 0.62,0.63 0.35,0 0.63,-0.28 0.63,-0.63 0,-0.34 -0.28,-0.62 -0.63,-0.62zm0.31 0.47l0 0c0,0 0.01,0.07 -0.04,0.2 -0.05,0.13 -0.19,0.25 -0.37,0.26 -0.18,0.01 -0.28,-0.07 -0.28,-0.07 0.14,0.01 0.2,-0.04 0.23,-0.06 -0.12,-0.02 -0.14,-0.11 -0.14,-0.11 0.01,0 0.05,0 0.07,0 -0.13,-0.03 -0.13,-0.16 -0.13,-0.16 0,0 0.05,0.03 0.07,0.02 -0.12,-0.09 -0.05,-0.21 -0.05,-0.21 0.16,0.17 0.33,0.16 0.33,0.16l0 0.01c0,-0.02 -0.01,-0.03 -0.01,-0.04 0,-0.09 0.07,-0.16 0.16,-0.16 0.05,0 0.09,0.02 0.12,0.05l0 0c0.05,0 0.09,-0.03 0.09,-0.03 -0.01,0.05 -0.05,0.07 -0.06,0.08 0,0 0,0 0,0 0.02,0 0.07,-0.02 0.08,-0.02 -0.03,0.05 -0.07,0.08 -0.07,0.08z"/>
 </g>
</svg>
