<svg xmlns="http://www.w3.org/2000/svg" width="80" height="80" viewBox="0 0 1.1 1.1" shape-rendering="geometricPrecision" text-rendering="geometricPrecision" image-rendering="optimizeQuality" fill-rule="evenodd" clip-rule="evenodd"><defs><style>.fil1{fill:#451d33}</style></defs><g id="Слой_x0020_1"><g id="_4476907392"><path d="M1.1.55C1.1.25.85 0 .55 0 .25 0 0 .25 0 .55c0 .3.25.55.55.55.3 0 .55-.25.55-.55z" fill="#f6e9d0"/><path class="fil1" d="M.85.56v.12C.85.75.81.8.75.84.73.85.7.85.67.85.59.85.51.86.43.85.36.85.31.82.27.77.26.74.25.72.25.69V.42c0-.06.03-.1.08-.14C.36.27.4.26.43.26h.24c.06 0 .11.02.15.07.02.03.03.06.03.09v.14zm-.04 0V.42C.81.4.8.38.78.36.76.32.72.3.67.3H.43C.41.3.38.31.36.32.32.34.3.38.3.43v.26C.3.71.3.73.32.75c.03.04.06.06.11.06h.24C.69.81.71.81.73.8.77.78.81.74.81.68.8.64.81.6.81.56z"/><path class="fil1" d="M.55.68C.47.68.41.62.41.54.41.47.47.41.55.41c.08 0 .14.06.14.14C.69.62.63.68.55.68zm0-.23a.09.09 0 00-.09.09c0 .06.04.1.09.1a.1.1 0 00.1-.1C.65.49.6.45.55.45zM.74.39C.74.41.72.43.71.43.69.43.68.41.68.39.68.38.69.36.71.36c.01 0 .03.02.03.03z"/></g></g></svg>