<svg xmlns="http://www.w3.org/2000/svg" width="80" height="80" viewBox="0 0 1.25 1.25" shape-rendering="geometricPrecision" text-rendering="geometricPrecision" image-rendering="optimizeQuality" fill-rule="evenodd" clip-rule="evenodd"><path d="M.62 0a.625.625 0 10.01 1.25A.625.625 0 00.62 0zm.31.47s.01.07-.04.2S.7.92.52.93C.34.94.24.86.24.86.38.87.44.82.47.8.35.78.33.69.33.69H.4C.27.66.27.53.27.53s.05.03.07.02C.22.46.29.34.29.34.45.51.62.5.62.5v.01C.62.49.61.48.61.47.61.38.68.31.77.31c.05 0 .09.02.12.05C.94.36.98.33.98.33.97.38.93.4.92.41.94.41.99.39 1 .39.97.44.93.47.93.47z" fill="#f6e9d0"/></svg>