<svg xmlns="http://www.w3.org/2000/svg" width="80" height="80" viewBox="0 0 1.44 1.44" shape-rendering="geometricPrecision" text-rendering="geometricPrecision" image-rendering="optimizeQuality" fill-rule="evenodd" clip-rule="evenodd"><path d="M.72 0c.39 0 .72.32.72.72 0 .39-.33.72-.72.72-.4 0-.72-.33-.72-.72C0 .32.32 0 .72 0zm.04.29H.72C.7.29.69.29.69.3a.03.03 0 000 .04h.04a.36.36 0 01.33.29v.08l.01.02c.01.02.03.02.04.01.01-.01.01-.01.01-.04C1.11.63 1.1.56 1.07.51A.383.383 0 00.89.33.495.495 0 00.76.29zM.44.31C.43.3.41.3.4.3.39.31.37.32.33.34L.27.4C.26.43.26.45.28.51.31.6.36.7.43.78c.13.17.28.29.48.38.03.01.04.01.06.01.02 0 .04-.01.07-.03.02-.02.07-.07.08-.1.01-.03 0-.05-.01-.07-.01-.01-.07-.06-.1-.08C.99.88.95.85.94.85.92.84.9.83.88.84.86.85.86.85.83.88.82.89.81.91.81.91S.8.91.8.92C.78.92.75.92.71.9A.55.55 0 01.62.83.251.251 0 01.55.75a.26.26 0 01-.04-.1C.51.64.52.62.52.62.52.61.54.6.55.59.58.56.59.56.59.54.6.53.59.51.58.48A.432.432 0 00.45.32C.45.31.44.31.44.31zM.77.4C.74.39.73.39.72.4a.03.03 0 000 .04c.01 0 .01 0 .03.01.04 0 .08.01.11.03.03.02.06.05.07.08.02.03.03.07.03.11C.96.69.96.7.98.7c0 .01.01.01.02 0 0 0 .01 0 .01-.01V.64C1.01.59.99.55.97.51A.287.287 0 00.77.4zM.8.5H.76C.74.51.74.53.75.54c0 .01.01.01.03.01.03.01.06.02.07.05 0 .01.01.02.01.04s0 .02.01.03H.9C.91.66.91.65.91.62A.15.15 0 00.87.54.161.161 0 00.8.5z" fill="#f6e9d0"/></svg>