<svg xmlns="http://www.w3.org/2000/svg" width="80" height="80" viewBox="0 0 1.17 1.17" shape-rendering="geometricPrecision" text-rendering="geometricPrecision" image-rendering="optimizeQuality" fill-rule="evenodd" clip-rule="evenodd"><path d="M1.17.59c0 .32-.26.58-.58.58a.585.585 0 11.58-.58z" fill="#f6e9d0"/><path d="M.6.84C.61.84.62.83.62.82.62.76.64.73.68.77c.04.04.05.07.11.07h.09C.95.84.89.77.83.72.79.68.78.68.83.62.88.55.95.47.89.47H.77C.75.47.75.48.74.5.71.57.65.65.63.64.61.63.62.58.62.5.62.48.62.46.59.45.5.43.42.47.45.48c.05.01.04.1.03.14C.47.69.4.56.37.5.36.48.36.47.33.47H.24C.22.47.21.48.22.49.23.51.3.67.38.76.46.85.54.84.6.84z" fill="#451d33"/></svg>