<svg xmlns="http://www.w3.org/2000/svg" width="80" height="80" viewBox="0 0 1.34 1.34" shape-rendering="geometricPrecision" text-rendering="geometricPrecision" image-rendering="optimizeQuality" fill-rule="evenodd" clip-rule="evenodd"><defs><style>.fil1{fill:#451d33}</style></defs><g id="Слой_x0020_1"><g id="_1614481040"><path d="M1.34.67A.67.67 0 100 .67a.67.67 0 001.34 0z" fill="#f6e9d0"/><path class="fil1" d="M.95.39A.395.395 0 00.67.27C.45.27.28.45.28.67.28.73.3.8.33.86l-.05.2.2-.05c.06.03.12.05.19.05a.4.4 0 00.39-.4c0-.1-.04-.2-.11-.27zM.84.94C.79.97.73.99.67.99.61.99.56.98.51.95L.49.94.37.97.4.85.39.84C.3.68.34.48.5.39a.32.32 0 01.44.1c.1.16.05.36-.1.45z"/><path class="fil1" d="M.84.74S.8.73.78.72c0 0 0-.01-.01-.01L.76.72.73.76H.71L.69.75A.21.21 0 01.63.71L.62.7C.6.68.59.67.58.65L.57.64V.63S.58.61.59.61C.59.6.59.6.6.59V.57C.6.56.57.5.57.49.56.48.56.48.55.48H.53.52C.51.49.51.49.5.49.5.5.5.5.49.51S.47.55.47.57c0 .02 0 .04.01.05v.01C.5.67.53.7.56.74h.01c0 .01.01.02.02.02.04.04.09.07.15.08.01.01.01.01.02.01h.02C.79.85.81.84.81.84.82.83.82.83.83.83.84.82.84.82.85.82.85.81.85.81.86.8c0-.01 0-.02.01-.03V.76S.86.76.86.75L.84.74z"/></g></g></svg>