<?xml version="1.0" encoding="UTF-8"?>
<!DOCTYPE svg PUBLIC "-//W3C//DTD SVG 1.1//EN" "http://www.w3.org/Graphics/SVG/1.1/DTD/svg11.dtd">
<!-- Creator: CorelDRAW 2019 (64-Bit) -->
<svg xmlns="http://www.w3.org/2000/svg" xml:space="preserve" width="235px" height="374px" version="1.1" style="shape-rendering:geometricPrecision; text-rendering:geometricPrecision; image-rendering:optimizeQuality; fill-rule:evenodd; clip-rule:evenodd"
viewBox="0 0 43.14 68.63"
 xmlns:xlink="http://www.w3.org/1999/xlink">
 <defs>
  <style type="text/css">
   <![CDATA[
    .fil1 {fill:none}
    .fil0 {fill:#F9F2E6}
    .fil4 {fill:#2E261E}
    .fil2 {fill:#F6E7CE}
    .fil5 {fill:#FEFEFE;fill-rule:nonzero}
    .fil3 {fill:#2B2A29;fill-rule:nonzero}
    .fil6 {fill:#2E261E;fill-rule:nonzero}
    .fil7 {fill:#395036;fill-rule:nonzero}
   ]]>
  </style>
    <clipPath id="id0">
     <path d="M0 0l43.14 0 0 68.63 -43.14 0 0 -68.63z"/>
    </clipPath>
 </defs>
 <g id="blok_x0020_1">
  <metadata id="CorelCorpID_0Corel-Layer"/>
  <g id="logotip">
   <g style="clip-path:url(#id0)">
    <polygon class="fil0" points="-55.08,-55.08 98.22,-55.08 98.22,123.7 -55.08,123.7 "/>
    <g id="blok_x0020_1_0">
     <metadata id="CorelCorpID_1Corel-Layer"/>
     <g id="logotip_1">
     </g>
    </g>
   </g>
   <polygon id="1" class="fil1" points="0,0 43.14,0 43.14,68.63 0,68.63 "/>
   <g>
    <polygon class="fil2" points="2.28,1.8 40.73,1.8 40.73,66.83 2.28,66.83 "/>
    <path class="fil3" d="M1.74 1.8l39.61 0 0 65.19 -39.69 0 0 -65.19 0.08 0zm39.45 0.16l-39.37 0 0 64.87 39.37 0 0 -64.87z"/>
    <polygon class="fil4" points="1.97,1.88 41.04,1.88 41.04,8.31 1.97,8.31 "/>
    <path class="fil3" d="M1.74 1.81l39.6 0 0 6.57 -39.67 0 0 -6.57 0.07 0zm39.46 0.14l-39.39 0 0 6.29 39.39 0 0 -6.29z"/>
    <polygon class="fil4" points="1.67,60.48 41.35,60.48 41.35,66.91 1.67,66.91 "/>
    <path class="fil3" d="M1.74 60.42l39.46 0 0 6.56c-13.17,0.01 -26.35,0.01 -39.53,0l0 -6.56 0.07 0zm39.33 0.13l-39.26 0 0 6.29 39.26 0 0 -6.29z"/>
    <path class="fil5" d="M15.57 3.2l0.44 0 -1.32 3.76 -0.71 0 -1.34 -3.76 0.78 0 0.68 2.03c0.05,0.15 0.1,0.3 0.14,0.45 0.05,0.15 0.09,0.28 0.13,0.4 0.04,0.14 0.08,0.28 0.12,0.4 0.04,-0.15 0.09,-0.3 0.14,-0.45 0.04,-0.13 0.08,-0.28 0.13,-0.43 0.05,-0.15 0.1,-0.29 0.14,-0.42l0.67 -1.98zm1.59 3.76l-0.73 0 0 -3.76 0.73 0 0 3.76zm3.76 0.02l-2.52 -2.64 -0.01 0c0.01,0.22 0.02,0.43 0.02,0.61 0,0.08 0,0.16 0.01,0.24 0,0.07 0,0.15 0,0.21 0,0.07 0,0.13 0,0.18 0,0.05 0,0.09 0,0.11l0 1.27 -0.43 0 0 -3.78 0.32 0 2.53 2.62c0,-0.2 -0.01,-0.39 -0.01,-0.57 0,-0.07 0,-0.15 0,-0.23 0,-0.07 0,-0.15 0,-0.22 -0.01,-0.07 -0.01,-0.13 -0.01,-0.19 0,-0.06 0,-0.11 0,-0.14l0 -1.25 0.43 0 0 3.78 -0.33 0zm4.21 -1.35c0,0.19 -0.03,0.37 -0.1,0.53 -0.07,0.17 -0.17,0.32 -0.31,0.44 -0.13,0.13 -0.3,0.23 -0.51,0.3 -0.2,0.07 -0.43,0.11 -0.7,0.11 -0.22,0 -0.42,-0.03 -0.6,-0.07 -0.17,-0.05 -0.33,-0.12 -0.45,-0.23 -0.13,-0.1 -0.23,-0.24 -0.29,-0.4 -0.07,-0.17 -0.11,-0.38 -0.11,-0.62l0 -2.49 0.73 0 0 2.56c0,0.18 0.02,0.33 0.05,0.44 0.03,0.11 0.08,0.2 0.15,0.26 0.06,0.06 0.14,0.1 0.24,0.11 0.1,0.02 0.21,0.03 0.33,0.03 0.16,0 0.29,-0.02 0.4,-0.05 0.11,-0.03 0.2,-0.08 0.28,-0.13 0.07,-0.05 0.12,-0.14 0.14,-0.26 0.02,-0.11 0.03,-0.25 0.03,-0.42l0 -2.54 0.72 0 0 2.43zm4.5 1.33l-0.28 -2.86 -1.29 2.86 -0.22 0 -1.35 -2.86 -0.24 2.86 -0.42 0 0.36 -3.78 0.68 0 1.25 2.66 1.19 -2.66 0.67 0 0.39 3.78 -0.74 0z"/>
    <path class="fil3" d="M15.57 3.17l0.48 0c-0.44,1.28 -0.89,2.55 -1.34,3.82l-0.75 0c-0.45,-1.27 -0.91,-2.54 -1.36,-3.82l0.84 0 0.69 2.05 0.07 0.23 0.2 0.62 0.09 0.3 0.04 -0.12 0.2 -0.66c0.02,-0.07 0.05,-0.14 0.07,-0.22 0.25,-0.73 0.5,-1.46 0.75,-2.2l0.02 0zm0.4 0.06l-0.38 0 -0.66 1.96 -0.07 0.2c-0.02,0.07 -0.05,0.14 -0.07,0.22l-0.2 0.65 -0.1 0.33 -0.03 -0.1 -0.06 -0.19 -0.06 -0.21 -0.2 -0.62 -0.07 -0.23 -0.67 -2.01 -0.72 0 1.32 3.7 0.67 0 1.3 -3.7zm1.19 3.76l-0.76 0 0 -3.82 0.79 0 0 3.82 -0.03 0zm-0.7 -0.06l0.67 0 0 -3.7 -0.67 0 0 3.7zm4.44 0.07l-2.48 -2.59 0.02 0.54c0.01,0.68 0.01,1.36 0.01,2.04l-0.49 0 0 -3.84 0.37 0 2.48 2.57 -0.01 -0.49c0,-0.08 0,-0.15 0,-0.23l-0.01 -0.41 0 -1.42 0.49 0 0 3.84 -0.37 0 -0.01 -0.01zm-2.48 -2.68l2.52 2.62 0.28 0 0 -3.71 -0.37 0 0 1.36 0.01 0.41c0,0.08 0,0.16 0,0.23l0.01 0.64 -2.57 -2.66 -0.27 0 0 3.72 0.36 0c0,-0.66 0,-1.32 -0.01,-1.98l-0.02 -0.64 0.05 0 0.01 0.01zm6.74 1.31c0,0.1 0,0.19 -0.02,0.28 -0.02,0.09 -0.05,0.18 -0.08,0.27 -0.04,0.08 -0.08,0.16 -0.14,0.24 -0.05,0.07 -0.11,0.14 -0.18,0.2 -0.07,0.07 -0.15,0.13 -0.23,0.18 -0.09,0.05 -0.18,0.09 -0.29,0.13 -0.1,0.03 -0.21,0.06 -0.33,0.08 -0.12,0.02 -0.25,0.03 -0.38,0.03 -0.11,0 -0.22,-0.01 -0.32,-0.02 -0.1,-0.01 -0.19,-0.03 -0.28,-0.05 -0.1,-0.03 -0.18,-0.06 -0.26,-0.09 -0.08,-0.04 -0.15,-0.09 -0.21,-0.14 -0.07,-0.06 -0.13,-0.12 -0.18,-0.19 -0.05,-0.07 -0.09,-0.15 -0.12,-0.23 -0.04,-0.09 -0.06,-0.19 -0.08,-0.29 -0.02,-0.11 -0.03,-0.22 -0.03,-0.34l0 -2.52 0.79 0 0 2.59c0,0.09 0,0.17 0.01,0.25 0.01,0.07 0.02,0.13 0.04,0.18 0.01,0.06 0.03,0.1 0.06,0.14 0.02,0.04 0.05,0.08 0.08,0.11 0.03,0.02 0.06,0.05 0.1,0.06 0.04,0.02 0.08,0.04 0.12,0.04 0.05,0.01 0.1,0.02 0.16,0.02 0.05,0.01 0.11,0.01 0.17,0.01 0.08,0 0.15,0 0.21,-0.01 0.07,-0.01 0.13,-0.02 0.18,-0.04 0.06,-0.01 0.11,-0.03 0.15,-0.05 0.04,-0.02 0.08,-0.05 0.12,-0.07 0.03,-0.03 0.06,-0.06 0.08,-0.1 0.02,-0.04 0.04,-0.09 0.05,-0.14 0.01,-0.06 0.02,-0.12 0.02,-0.19 0.01,-0.07 0.01,-0.15 0.01,-0.23l0 -2.57 0.78 0 0 2.46zm-0.08 0.27c0.01,-0.09 0.02,-0.17 0.02,-0.27l0 -2.4 -0.66 0 0 2.51c0,0.09 0,0.16 -0.01,0.23 0,0.07 -0.01,0.14 -0.02,0.2 -0.01,0.06 -0.03,0.11 -0.05,0.16 -0.03,0.05 -0.06,0.09 -0.11,0.12 -0.03,0.02 -0.08,0.05 -0.12,0.07 -0.05,0.02 -0.1,0.04 -0.16,0.06 -0.06,0.02 -0.12,0.03 -0.19,0.04 -0.07,0.01 -0.14,0.01 -0.22,0.01 -0.06,0 -0.12,0 -0.18,-0.01 -0.05,0 -0.11,-0.01 -0.16,-0.02 -0.05,-0.01 -0.1,-0.02 -0.14,-0.04 -0.04,-0.02 -0.08,-0.05 -0.11,-0.08 -0.04,-0.03 -0.07,-0.07 -0.1,-0.12 -0.02,-0.04 -0.04,-0.09 -0.06,-0.15 -0.02,-0.05 -0.03,-0.12 -0.04,-0.2 -0.01,-0.07 -0.01,-0.16 -0.01,-0.25l0 -2.53 -0.67 0 0 2.46c0,0.12 0.01,0.23 0.03,0.33 0.02,0.1 0.04,0.19 0.07,0.27 0.04,0.09 0.08,0.16 0.12,0.23 0.05,0.06 0.11,0.12 0.17,0.17 0.06,0.05 0.13,0.09 0.2,0.13 0.07,0.04 0.15,0.07 0.24,0.09 0.09,0.02 0.18,0.04 0.28,0.05 0.1,0.01 0.2,0.02 0.31,0.02 0.13,0 0.25,-0.01 0.37,-0.03 0.12,-0.02 0.22,-0.04 0.32,-0.08 0.1,-0.04 0.19,-0.08 0.28,-0.13 0.08,-0.05 0.15,-0.1 0.22,-0.16 0.07,-0.06 0.13,-0.13 0.17,-0.2 0.06,-0.07 0.1,-0.15 0.13,-0.23 0.04,-0.08 0.06,-0.16 0.08,-0.25zm4.52 1.06l-0.27 -2.75 -1.25 2.78 -0.26 0 -1.31 -2.78 -0.23 2.78 -0.48 0c0.12,-1.28 0.24,-2.56 0.37,-3.84l0.72 0 1.23 2.62 1.17 -2.62 0.71 0c0.14,1.28 0.27,2.56 0.41,3.84l-0.8 0 -0.01 -0.03zm-0.22 -2.87l0.28 2.84 0.68 0 -0.39 -3.72 -0.62 0 -1.21 2.7 -1.27 -2.7 -0.63 0 -0.36 3.72 0.36 0 0.25 -2.95 1.39 2.95 0.18 0 1.32 -2.95 0.02 0.11z"/>
    <polygon class="fil4" points="2.69,1.88 1.88,1.88 1.88,66.91 2.69,66.91 "/>
    <path class="fil6" d="M2.59 1.96l-0.62 0 0 64.87 0.62 0 0 -64.87zm-0.69 -0.16l0.84 0 0 65.19 -0.92 0 0 -65.19 0.08 0z"/>
    <polygon class="fil4" points="41.13,1.88 40.33,1.88 40.33,66.91 41.13,66.91 "/>
    <path class="fil6" d="M41.04 1.96l-0.62 0 0 64.87 0.62 0 0 -64.87zm-0.7 -0.16l0.85 0 0 65.19 -0.92 0 0 -65.19 0.07 0z"/>
    <path class="fil5" d="M11.22 65.57l0 -3.75 0.72 0 0 3.36 1.36 0 -0.04 0.39 -2.04 0zm3.34 0l-0.72 0 0 -3.75 0.72 0 0 3.75zm3.08 -1.45l-0.79 -0.04 0.03 -0.31 1.5 0 0 1.53c-0.08,0.04 -0.18,0.08 -0.3,0.11 -0.12,0.04 -0.25,0.07 -0.39,0.1 -0.13,0.03 -0.28,0.06 -0.42,0.08 -0.15,0.02 -0.3,0.03 -0.43,0.03 -0.28,0 -0.52,-0.05 -0.71,-0.14 -0.2,-0.1 -0.36,-0.23 -0.48,-0.4 -0.12,-0.17 -0.21,-0.38 -0.26,-0.62 -0.06,-0.24 -0.09,-0.5 -0.09,-0.8 0,-0.29 0.05,-0.55 0.15,-0.79 0.09,-0.23 0.23,-0.43 0.4,-0.59 0.18,-0.16 0.39,-0.29 0.63,-0.38 0.24,-0.08 0.51,-0.13 0.8,-0.13 0.07,0 0.15,0.01 0.24,0.01 0.09,0.01 0.17,0.01 0.26,0.02 0.09,0.01 0.17,0.02 0.25,0.03 0.07,0.02 0.14,0.03 0.19,0.04l-0.12 0.55c-0.06,-0.02 -0.14,-0.04 -0.23,-0.06 -0.1,-0.02 -0.19,-0.04 -0.3,-0.05 -0.1,-0.02 -0.2,-0.03 -0.3,-0.04 -0.1,-0.02 -0.19,-0.02 -0.27,-0.02 -0.13,0 -0.25,0.01 -0.36,0.03 -0.12,0.02 -0.23,0.07 -0.32,0.14 -0.05,0.04 -0.1,0.11 -0.13,0.2 -0.03,0.09 -0.06,0.19 -0.08,0.3 -0.02,0.12 -0.03,0.24 -0.04,0.37 0,0.13 -0.01,0.25 -0.01,0.38 0,0.5 0.06,0.88 0.19,1.15 0.12,0.27 0.32,0.4 0.58,0.4 0.07,0 0.14,0 0.22,-0.01 0.07,0 0.15,-0.01 0.22,-0.02 0.07,-0.01 0.14,-0.02 0.2,-0.03 0.07,-0.01 0.12,-0.02 0.17,-0.03l0 -1.01zm4.43 1.47l-2.52 -2.64 -0.01 0c0.01,0.22 0.02,0.43 0.02,0.61 0,0.08 0.01,0.16 0.01,0.24 0,0.08 0,0.15 0,0.22 0,0.06 0,0.12 0,0.17 0,0.05 0,0.09 0,0.11l0 1.27 -0.42 0 0 -3.78 0.31 0 2.53 2.62c0,-0.2 0,-0.39 -0.01,-0.57 0,-0.07 0,-0.15 0,-0.23 0,-0.07 0,-0.15 0,-0.22 0,-0.07 -0.01,-0.13 -0.01,-0.19 0,-0.06 0,-0.11 0,-0.14l0 -1.24 0.43 0 0 3.77 -0.33 0zm4.22 -1.35c0,0.19 -0.04,0.37 -0.11,0.54 -0.07,0.16 -0.17,0.31 -0.31,0.43 -0.13,0.13 -0.3,0.23 -0.51,0.3 -0.2,0.07 -0.43,0.11 -0.7,0.11 -0.22,0 -0.42,-0.02 -0.6,-0.07 -0.17,-0.05 -0.33,-0.12 -0.45,-0.22 -0.13,-0.11 -0.23,-0.25 -0.29,-0.41 -0.07,-0.17 -0.11,-0.38 -0.11,-0.62l0 -2.48 0.73 0 0 2.55c0,0.19 0.02,0.33 0.05,0.44 0.03,0.11 0.08,0.2 0.15,0.26 0.06,0.06 0.14,0.1 0.24,0.11 0.1,0.02 0.21,0.03 0.33,0.03 0.16,0 0.29,-0.02 0.4,-0.05 0.11,-0.03 0.2,-0.07 0.28,-0.13 0.07,-0.05 0.12,-0.14 0.14,-0.25 0.02,-0.12 0.03,-0.26 0.03,-0.43l0 -2.53 0.73 0 0 2.42zm4.5 1.33l-0.29 -2.86 -1.29 2.86 -0.22 0 -1.35 -2.86 -0.24 2.86 -0.42 0 0.36 -3.78 0.68 0 1.25 2.66 1.19 -2.66 0.67 0 0.39 3.78 -0.73 0z"/>
    <path class="fil3" d="M11.19 65.57l0 -3.78 0.79 0 0 3.36 1.36 0 -0.05 0.45 -2.1 0 0 -0.03zm0.06 -3.72l0 3.69 1.99 0 0.03 -0.33 -1.36 0 0 -3.36 -0.66 0zm3.31 3.75l-0.75 0 0 -3.81 0.78 0 0 3.81 -0.03 0zm-0.69 -0.06l0.66 0 0 -3.69 -0.66 0 0 3.69zm3.74 -1.39l-0.8 -0.04 0.04 -0.37 1.56 0 0 1.58 -0.02 0.01c-0.04,0.02 -0.08,0.04 -0.13,0.06 -0.06,0.02 -0.11,0.03 -0.17,0.05 -0.06,0.02 -0.12,0.04 -0.19,0.06 -0.06,0.01 -0.13,0.03 -0.2,0.04 -0.07,0.02 -0.14,0.03 -0.21,0.05 -0.07,0.01 -0.15,0.02 -0.22,0.03 -0.07,0.01 -0.15,0.02 -0.22,0.02 -0.07,0.01 -0.14,0.01 -0.21,0.01 -0.14,0 -0.27,-0.01 -0.39,-0.04 -0.12,-0.02 -0.23,-0.06 -0.33,-0.1 -0.1,-0.05 -0.2,-0.11 -0.28,-0.18 -0.08,-0.07 -0.15,-0.15 -0.21,-0.23 -0.06,-0.09 -0.12,-0.19 -0.16,-0.29 -0.05,-0.11 -0.09,-0.22 -0.11,-0.34 -0.03,-0.12 -0.05,-0.25 -0.07,-0.38 -0.01,-0.14 -0.02,-0.28 -0.02,-0.43 0,-0.15 0.01,-0.29 0.04,-0.42 0.02,-0.13 0.06,-0.26 0.11,-0.38 0.05,-0.12 0.11,-0.23 0.17,-0.33 0.07,-0.1 0.15,-0.19 0.24,-0.27 0.09,-0.09 0.19,-0.16 0.29,-0.22 0.11,-0.07 0.23,-0.12 0.35,-0.16 0.12,-0.05 0.25,-0.08 0.38,-0.1 0.14,-0.03 0.28,-0.04 0.43,-0.04l0.11 0.01 0.13 0 0.13 0.01 0.13 0.01c0.05,0.01 0.09,0.01 0.13,0.02 0.04,0 0.08,0.01 0.12,0.01l0.11 0.02c0.03,0.01 0.06,0.02 0.09,0.02l0.02 0.01 -0.13 0.61 -0.03 -0.01c-0.03,-0.01 -0.07,-0.02 -0.1,-0.03 -0.04,-0.01 -0.08,-0.02 -0.13,-0.03l-0.14 -0.03 -0.15 -0.02c-0.05,-0.01 -0.1,-0.02 -0.15,-0.03l-0.15 -0.01c-0.05,-0.01 -0.1,-0.01 -0.14,-0.02 -0.05,0 -0.09,0 -0.13,0 -0.06,0 -0.12,0 -0.18,0.01 -0.06,0 -0.12,0.01 -0.18,0.02 -0.05,0.01 -0.11,0.03 -0.16,0.05 -0.05,0.02 -0.1,0.05 -0.14,0.09l0 0c-0.03,0.02 -0.05,0.04 -0.07,0.07 -0.02,0.03 -0.04,0.07 -0.05,0.11 -0.02,0.04 -0.03,0.09 -0.05,0.14 -0.01,0.05 -0.02,0.1 -0.03,0.16 -0.01,0.05 -0.02,0.11 -0.02,0.17 -0.01,0.06 -0.01,0.12 -0.02,0.19 0,0.06 0,0.13 -0.01,0.19l0 0.19c0,0.25 0.02,0.47 0.05,0.66 0.03,0.19 0.08,0.35 0.14,0.48 0.06,0.13 0.13,0.22 0.22,0.28 0.1,0.07 0.21,0.1 0.33,0.1l0.11 0 0.11 -0.01 0.11 -0.01 0.11 -0.01 0.1 -0.02 0.1 -0.01 0.14 -0.03 0 -0.95zm-0.73 -0.1l0.79 0.04 0 1.06 -0.1 0.02 -0.09 0.02 -0.1 0.01 -0.11 0.02 -0.11 0.01 -0.11 0.01 -0.11 0.01 -0.11 0c-0.14,0 -0.26,-0.04 -0.36,-0.11 -0.1,-0.06 -0.18,-0.17 -0.25,-0.31 -0.06,-0.13 -0.11,-0.3 -0.14,-0.49 -0.03,-0.2 -0.05,-0.42 -0.05,-0.67l0 -0.19c0.01,-0.07 0.01,-0.13 0.01,-0.19 0.01,-0.07 0.01,-0.13 0.02,-0.2 0,-0.06 0.01,-0.12 0.02,-0.17 0.01,-0.06 0.02,-0.12 0.04,-0.17 0.01,-0.05 0.02,-0.1 0.04,-0.14 0.02,-0.05 0.04,-0.09 0.06,-0.12 0.03,-0.04 0.05,-0.07 0.08,-0.09 0.05,-0.04 0.1,-0.07 0.16,-0.1 0.05,-0.02 0.11,-0.04 0.17,-0.05 0.06,-0.01 0.12,-0.02 0.18,-0.02 0.06,-0.01 0.13,-0.01 0.19,-0.01 0.04,0 0.09,0 0.13,0 0.05,0.01 0.09,0.01 0.15,0.02l0.15 0.01c0.05,0.01 0.1,0.02 0.15,0.03l0.15 0.02c0.05,0.01 0.1,0.02 0.14,0.03 0.05,0.01 0.09,0.02 0.13,0.03l0.07 0.02 0.11 -0.49 -0.05 -0.01 -0.11 -0.02 -0.12 -0.01c-0.04,-0.01 -0.08,-0.01 -0.12,-0.02l-0.13 -0.01 -0.13 -0.01 -0.13 0 -0.11 -0.01c-0.15,0 -0.29,0.01 -0.42,0.04 -0.13,0.02 -0.25,0.05 -0.37,0.09 -0.12,0.05 -0.23,0.1 -0.33,0.16 -0.11,0.06 -0.2,0.13 -0.29,0.21 -0.08,0.08 -0.16,0.17 -0.23,0.27 -0.06,0.09 -0.12,0.2 -0.17,0.31 -0.04,0.12 -0.08,0.24 -0.1,0.37 -0.03,0.13 -0.04,0.27 -0.04,0.41 0,0.15 0.01,0.29 0.02,0.42 0.02,0.13 0.04,0.26 0.07,0.37 0.02,0.12 0.06,0.23 0.1,0.33 0.05,0.1 0.1,0.2 0.16,0.28 0.06,0.08 0.13,0.16 0.2,0.22 0.08,0.07 0.17,0.12 0.26,0.17 0.1,0.05 0.2,0.08 0.32,0.1 0.11,0.03 0.24,0.04 0.38,0.04 0.07,0 0.14,0 0.21,-0.01 0.07,0 0.14,-0.01 0.21,-0.02 0.07,-0.01 0.15,-0.02 0.22,-0.03 0.07,-0.02 0.14,-0.03 0.21,-0.05 0.07,-0.01 0.13,-0.03 0.2,-0.04 0.06,-0.02 0.12,-0.04 0.18,-0.05 0.06,-0.02 0.12,-0.04 0.17,-0.06 0.04,-0.02 0.08,-0.03 0.11,-0.05l0 -1.48 -1.44 0 -0.03 0.25zm5.17 1.56l-2.47 -2.59 0.01 0.54c0.02,0.68 0.01,1.36 0.01,2.04l-0.48 0 0 -3.84 0.36 0 2.48 2.57 -0.01 -0.49c0,-0.07 0,-0.15 0,-0.22 -0.01,-0.62 -0.01,-1.22 -0.01,-1.83l0.49 0 0 3.83 -0.37 0 -0.01 -0.01zm-2.48 -2.68l2.52 2.63 0.28 0 0 -3.71 -0.36 0c0,0.59 -0.01,1.17 0,1.76 0,0.09 0,0.16 0,0.23l0.01 0.65 -2.57 -2.67 -0.27 0 0 3.72 0.36 0c0,-0.66 0,-1.32 -0.01,-1.98l-0.02 -0.64 0.05 0 0.01 0.01zm6.75 1.31c0,0.2 -0.04,0.38 -0.11,0.55 -0.04,0.08 -0.08,0.16 -0.13,0.24 -0.06,0.07 -0.12,0.14 -0.19,0.2 -0.07,0.07 -0.14,0.13 -0.23,0.18 -0.09,0.05 -0.18,0.09 -0.29,0.13 -0.1,0.04 -0.21,0.06 -0.33,0.08 -0.12,0.02 -0.25,0.03 -0.38,0.03 -0.11,0 -0.22,-0.01 -0.32,-0.02 -0.1,-0.01 -0.19,-0.03 -0.28,-0.05 -0.09,-0.02 -0.18,-0.05 -0.26,-0.09 -0.07,-0.04 -0.15,-0.09 -0.21,-0.14 -0.07,-0.06 -0.12,-0.12 -0.17,-0.19 -0.05,-0.07 -0.1,-0.15 -0.13,-0.23 -0.04,-0.09 -0.06,-0.18 -0.08,-0.29 -0.02,-0.1 -0.03,-0.22 -0.03,-0.34l0 -2.51 0.79 0 0 2.58c0,0.09 0.01,0.17 0.01,0.25 0.01,0.07 0.02,0.13 0.04,0.19 0.01,0.05 0.03,0.1 0.06,0.14 0.02,0.04 0.05,0.07 0.08,0.1 0.03,0.02 0.06,0.05 0.1,0.06 0.04,0.02 0.08,0.04 0.13,0.04 0.04,0.01 0.09,0.02 0.15,0.02 0.05,0.01 0.11,0.01 0.17,0.01 0.08,0 0.15,0 0.21,-0.01 0.07,-0.01 0.13,-0.02 0.18,-0.04 0.06,-0.01 0.11,-0.03 0.15,-0.05 0.04,-0.02 0.08,-0.05 0.12,-0.07 0.03,-0.03 0.06,-0.06 0.08,-0.1 0.03,-0.04 0.04,-0.08 0.05,-0.14 0.01,-0.06 0.02,-0.12 0.02,-0.19 0.01,-0.07 0.01,-0.14 0.01,-0.23l0 -2.56 0.79 0 0 2.45zm-0.17 0.52c0.07,-0.16 0.1,-0.33 0.1,-0.52l0 -2.39 -0.66 0 0 2.5c0,0.09 0,0.16 -0.01,0.23 0,0.08 -0.01,0.14 -0.02,0.2 -0.01,0.06 -0.03,0.12 -0.05,0.16 -0.03,0.05 -0.06,0.09 -0.1,0.12 -0.04,0.02 -0.09,0.05 -0.13,0.07 -0.05,0.02 -0.1,0.04 -0.16,0.06 -0.06,0.02 -0.12,0.03 -0.19,0.04 -0.07,0.01 -0.14,0.01 -0.22,0.01 -0.06,0 -0.12,0 -0.18,-0.01 -0.05,0 -0.11,-0.01 -0.16,-0.02 -0.05,0 -0.09,-0.02 -0.14,-0.04 -0.04,-0.02 -0.08,-0.05 -0.11,-0.08 -0.04,-0.03 -0.07,-0.07 -0.1,-0.11 -0.02,-0.05 -0.04,-0.1 -0.06,-0.16 -0.02,-0.05 -0.03,-0.12 -0.04,-0.2 -0.01,-0.07 -0.01,-0.16 -0.01,-0.25l0 -2.52 -0.66 0 0 2.45c0,0.12 0,0.23 0.02,0.33 0.02,0.1 0.04,0.19 0.07,0.28 0.04,0.08 0.08,0.15 0.13,0.22 0.04,0.06 0.1,0.12 0.16,0.17 0.06,0.05 0.13,0.1 0.2,0.13 0.08,0.04 0.16,0.07 0.24,0.09 0.09,0.02 0.18,0.04 0.28,0.05 0.1,0.01 0.2,0.02 0.31,0.02 0.13,0 0.26,-0.01 0.37,-0.03 0.12,-0.02 0.22,-0.04 0.32,-0.08 0.1,-0.03 0.2,-0.08 0.28,-0.13 0.08,-0.04 0.16,-0.1 0.22,-0.16 0.07,-0.06 0.13,-0.13 0.18,-0.2 0.05,-0.07 0.09,-0.14 0.12,-0.23zm4.61 0.81l-0.28 -2.75 -1.25 2.78 -0.26 0 -1.3 -2.78 -0.24 2.78 -0.48 0c0.12,-1.28 0.24,-2.56 0.37,-3.84l0.72 0 1.23 2.62 1.18 -2.62 0.71 0c0.13,1.28 0.27,2.56 0.4,3.84l-0.8 0 0 -0.03zm-0.23 -2.87l0.28 2.84 0.68 0 -0.39 -3.72 -0.62 0 -1.2 2.7 -1.27 -2.7 -0.64 0 -0.36 3.72 0.36 0 0.25 -2.95 1.39 2.95 0.18 0 1.33 -2.95 0.01 0.11z"/>
    <path class="fil3" d="M34.55 46.98l-2.78 4.78 -16.71 0c1.53,-2.27 16.36,-25.78 16.1,-26.2l5.48 0c-0.2,0.11 -0.39,0.24 -0.58,0.32 -1.41,0.63 -2.75,2.59 -3.31,3.49l-11.7 18.92 7.27 0c3.1,0 5.21,-0.51 6.23,-1.31z"/>
    <path class="fil7" d="M18.01 41.4l0.1 -4.23c0,-8.39 -0.77,-14.2 -2.29,-17.46 -1.61,-3.43 -3.59,-5.14 -5.92,-5.14 -1.64,0 -2.7,1.24 -2.83,2.73 -0.03,0.42 0,0.86 0.12,1.3 -2.43,-1.14 -1.56,-6.8 3.94,-6.52 6.78,0.35 10.4,8.29 10.4,23.87l5.2 -8.14c3.16,-4.92 4.74,-8 4.74,-9.23 0,-0.41 -0.49,-0.62 -1.47,-0.62l-1.29 0 0.19 -1 6.99 0 -0.21 1 -1.35 0 -14.85 23.42 -1.47 0.02z"/>
    <path class="fil3" d="M15.65 21.81l-1.01 0 0 0.23 0.51 0 -0.04 0.71c-0.09,1.64 -0.25,3.87 -0.48,5.59 -0.18,1.34 -0.41,2.41 -0.73,2.79l-0.04 0.05 -0.04 0.03c-0.78,0.66 -1.2,1.24 -1.44,1.79 -0.23,0.56 -0.31,1.14 -0.37,1.79l-0.16 19.68c0.02,0.2 0.01,0.13 0.02,0.15 0.02,0.33 0.05,0.65 0.31,0.78l6.81 0c0.04,-0.05 0.08,-0.11 0.1,-0.17 0.06,-0.12 0.08,-0.25 0.08,-0.42l1.35 0c0,0.36 -0.07,0.68 -0.21,0.98 -0.14,0.31 -0.34,0.57 -0.6,0.8l-0.19 0.16 -8.65 -0.13 -0.1 -0.02c-1.24,-0.36 -1.3,-1.18 -1.37,-2 -0.01,-0.14 0,-0.05 -0.01,-0.17l0 -0.03c0.07,-6.61 0.11,-13.22 0.16,-19.82l0 -0.03c0.07,-0.76 0.16,-1.46 0.48,-2.2 0.31,-0.72 0.82,-1.45 1.74,-2.24 0.13,-0.22 1.39,-0.9 1.53,-1.95 0.19,-1.43 0.33,-3.25 0.42,-4.77l-0.43 0 0 -2.93 2.36 0 0 1.35z"/>
   </g>
  </g>
 </g>
</svg>
